<?xml version="1.0" encoding="UTF-8" standalone="no"?>
<!-- Created with Inkscape (http://www.inkscape.org/) -->

<svg
   xmlns:dc="http://purl.org/dc/elements/1.1/"
   xmlns:cc="http://creativecommons.org/ns#"
   xmlns:rdf="http://www.w3.org/1999/02/22-rdf-syntax-ns#"
   xmlns:svg="http://www.w3.org/2000/svg"
   xmlns="http://www.w3.org/2000/svg"
   xmlns:sodipodi="http://sodipodi.sourceforge.net/DTD/sodipodi-0.dtd"
   xmlns:inkscape="http://www.inkscape.org/namespaces/inkscape"
   width="297mm"
   height="210mm"
   viewBox="0 0 297 210"
   version="1.1"
   id="svg8"
   inkscape:version="0.92.2 (unknown)"
   sodipodi:docname="p7.svg">
  <defs
     id="defs2">
    <inkscape:path-effect
       effect="bspline"
       id="path-effect1133"
       is_visible="true"
       weight="33.333333"
       steps="2"
       helper_size="0"
       apply_no_weight="true"
       apply_with_weight="true"
       only_selected="false" />
  </defs>
  <sodipodi:namedview
     id="base"
     pagecolor="#ffffff"
     bordercolor="#666666"
     borderopacity="1.0"
     inkscape:pageopacity="0.0"
     inkscape:pageshadow="2"
     inkscape:zoom="1.01"
     inkscape:cx="476.96442"
     inkscape:cy="343.59264"
     inkscape:document-units="mm"
     inkscape:current-layer="layer1"
     showgrid="false"
     inkscape:window-width="1855"
     inkscape:window-height="1056"
     inkscape:window-x="65"
     inkscape:window-y="24"
     inkscape:window-maximized="1" />
  <metadata
     id="metadata5">
    <rdf:RDF>
      <cc:Work
         rdf:about="">
        <dc:format>image/svg+xml</dc:format>
        <dc:type
           rdf:resource="http://purl.org/dc/dcmitype/StillImage" />
        <dc:title />
      </cc:Work>
    </rdf:RDF>
  </metadata>
  <g
     inkscape:groupmode="layer"
     id="layer2"
     inkscape:label="Layer 2"
     style="display:inline">
    <rect
       style="fill:none;fill-opacity:1;stroke:#000000;stroke-width:1.06500006;stroke-miterlimit:4;stroke-dasharray:none;stroke-opacity:1"
       id="rect134"
       width="91.425331"
       height="97.450493"
       x="83.85714"
       y="103.91382" />
    <rect
       style="fill:none;fill-opacity:1;stroke:#d60000;stroke-width:1.023;stroke-miterlimit:4;stroke-dasharray:none;stroke-opacity:1"
       id="rect134-3"
       width="142.61476"
       height="92.938889"
       x="1.0769552"
       y="6.745275" />
    <rect
       style="fill:none;fill-opacity:1;stroke:#00f200;stroke-width:1.20299995;stroke-miterlimit:4;stroke-dasharray:none;stroke-opacity:1"
       id="rect134-6"
       width="120.62772"
       height="94.16938"
       x="164.71295"
       y="13.33404" />
    <path
       style="fill:none;stroke:#0000f6;stroke-width:0.51999998;stroke-linecap:butt;stroke-linejoin:miter;stroke-miterlimit:4;stroke-dasharray:none;stroke-opacity:1"
       d="M 59.244804,80.417938 83.857142,201.36432"
       id="path2413"
       inkscape:connector-curvature="0" />
    <path
       style="fill:none;stroke:#0000e0;stroke-width:0.47600001;stroke-linecap:butt;stroke-linejoin:miter;stroke-miterlimit:4;stroke-dasharray:none;stroke-opacity:1"
       d="M 90.860397,48.016464 175.28247,103.91382"
       id="path2415"
       inkscape:connector-curvature="0" />
    <rect
       style="fill:none;fill-opacity:1;stroke:#3565d3;stroke-width:1.06099999;stroke-miterlimit:4;stroke-dasharray:none;stroke-opacity:1"
       id="rect134-7"
       width="31.615593"
       height="32.401478"
       x="59.244804"
       y="48.016464" />
    <path
       style="fill:none;stroke:#009059;stroke-width:0.35854876;stroke-linecap:butt;stroke-linejoin:miter;stroke-miterlimit:4;stroke-dasharray:none;stroke-opacity:1"
       d="M 141.34944,128.09288 164.68252,13.341671"
       id="path2415-5"
       inkscape:connector-curvature="0" />
    <path
       style="fill:none;stroke:#009059;stroke-width:0.37728894;stroke-linecap:butt;stroke-linejoin:miter;stroke-miterlimit:4;stroke-dasharray:none;stroke-opacity:1"
       d="M 141.34944,128.09288 285.34067,107.50342"
       id="path2415-5-3"
       inkscape:connector-curvature="0" />
  </g>
  <g
     inkscape:label="Layer 1"
     inkscape:groupmode="layer"
     id="layer1"
     transform="translate(0,-87)">
    <g
       id="g305"
       transform="matrix(0.30002241,0,0,0.28729274,6.5803345,77.559178)">
      <g
         id="g246">
        <path
           id="path238"
           d="m 352.346,231.706 7.955,-0.378 c 2.06,-0.099 3.976,-0.979 5.394,-2.48 l 8.351,-8.842 c 2.28,-2.414 2.815,-6.032 1.329,-9.003 l -5.843,-11.564 12.973,-7.983 c 1.674,-1.03 2.901,-2.637 3.456,-4.521 l 5.253,-17.86 c 1.133,-3.855 -0.797,-7.955 -4.49,-9.538 l -7.879,-3.326 1.049,-6.1 9.008,-3.793 c 2.151,-0.904 3.788,-2.7 4.491,-4.927 l 1.269,-4.014 10.367,12.253 c 1.516,1.791 3.712,2.818 6.026,2.818 4.398,0 7.976,-3.565 7.976,-7.948 l -0.001,-13.994 -0.322,-15.146 c -0.214,-10.079 -8.578,-18.279 -18.645,-18.279 -0.747,0 -1.504,0.045 -2.25,0.135 l -77.435,9.292 0.531,-1.442 c 0.876,-2.378 0.558,-5.056 -0.852,-7.161 -1.409,-2.106 -3.763,-3.422 -6.294,-3.519 l -9.848,-0.379 c -2.599,-0.09 -5.105,1.101 -6.658,3.17 l -24.181,32.253 -21.325,10.69 -17.579,-9.057 c -1.12,-0.576 -2.376,-0.881 -3.634,-0.881 -2.187,0 -4.3,0.915 -5.794,2.51 l -16.302,17.388 c -2.068,2.206 -2.704,5.34 -1.658,8.177 l 2.943,7.884 -10.435,9.887 -9.946,5.759 c -2.84,1.645 -4.361,4.805 -3.873,8.051 l 0.831,5.539 c 0.578,3.856 3.955,6.766 7.854,6.765 1.125,0 2.221,-0.236 3.257,-0.702 l 8.502,-3.827 10.604,-4.494 10.86,7.602 c 0.921,0.646 1.948,1.081 3.047,1.292 l 16.603,3.165 v 4.104 l -34.356,-5.153 c -1.383,-0.212 -2.799,-0.047 -4.097,0.466 l -22.403,8.843 c -2.456,0.97 -4.263,3.087 -4.835,5.664 l -4.38,19.712 c -0.621,2.791 0.314,5.713 2.439,7.624 l 10.325,9.294 c 1.665,1.498 3.893,2.222 6.122,1.996 l 19.936,-2.109 0.574,29.839 c 0.014,0.731 0.129,1.455 0.34,2.151 l 3.636,12 c 2.232,7.368 8.905,12.318 16.604,12.318 6.49,0 12.385,-3.575 15.385,-9.33 l 27.542,-52.836 c 1.64,-3.145 0.978,-7.037 -1.61,-9.464 l -3.589,-3.364 5.584,-1.861 c 2.629,-0.877 4.58,-3.012 5.216,-5.709 0.637,-2.697 -0.153,-5.479 -2.113,-7.438 l -8.196,-8.117 0.544,-0.688 17.154,11.061 13.818,19.96 c 1.483,2.143 3.921,3.421 6.523,3.421 2.989,0 5.696,-1.649 7.064,-4.304 l 6.159,-12.105 13.825,9.823 c 1.362,0.968 2.948,1.48 4.585,1.48 2.357,-10e-4 4.585,-1.043 6.114,-2.861 1.498,-1.781 2.126,-4.133 1.723,-6.452 z m -107.12,67.189 c -1.617,3.102 -4.794,5.028 -8.292,5.028 -4.149,0 -7.745,-2.668 -8.948,-6.639 l -3.633,-11.983 -0.574,-29.84 c -0.042,-2.214 -1.017,-4.325 -2.675,-5.793 -1.657,-1.468 -3.87,-2.173 -6.074,-1.954 l -19.956,2.067 -10.306,-9.235 4.344,-19.671 22.372,-8.839 37.33,5.6 14.892,19.379 c 0.341,0.455 9.062,9.044 9.062,9.044 z m 100.921,-72.213 c -1.423,1.776 -2.016,4.082 -1.626,6.325 l 0.235,1.358 -13.705,-9.738 c -1.352,-0.96 -2.94,-1.468 -4.593,-1.468 -2.99,0 -5.697,1.649 -7.064,4.305 l -6.182,12.064 -13.78,-19.905 c -0.596,-0.86 -1.344,-1.584 -2.225,-2.152 l -17.17,-11.078 c -1.286,-0.83 -2.774,-1.269 -4.304,-1.269 -2.267,0 -4.43,0.972 -5.936,2.665 l -0.622,0.699 c -2.789,3.138 -2.648,7.921 0.32,10.89 l 8.13,8.131 -9.099,3.075 -13.497,-17.975 v -7.436 c 0,-3.795 -2.704,-7.073 -6.431,-7.796 l -16.629,-3.214 -10.862,-7.603 c -2.212,-1.549 -5.144,-1.863 -7.636,-0.814 l -10.75,4.528 -8.507,3.911 -0.86,-5.479 9.938,-5.755 c 0.535,-0.308 1.035,-0.681 1.49,-1.111 l 10.445,-9.895 c 2.309,-2.186 3.09,-5.527 1.991,-8.511 l -2.941,-7.887 16.231,-17.376 17.579,9.057 c 1.119,0.576 2.376,0.881 3.635,0.881 1.226,0 2.453,-0.29 3.551,-0.838 l 21.385,-10.692 c 1.095,-0.55 2.061,-1.356 2.796,-2.335 L 303.607,102 l 9.794,0.3 -0.565,1.533 c -0.897,2.435 -0.548,5.157 0.934,7.283 1.668,2.391 4.475,3.705 7.462,3.346 l 77.533,-9.304 c 0.431,-0.052 0.868,-0.078 1.297,-0.078 5.748,0 10.524,4.688 10.647,10.449 l 0.321,15.062 -0.002,13.745 -10.33,-12.209 c -1.512,-1.788 -3.716,-2.814 -6.046,-2.814 -3.49,0 -6.539,2.23 -7.587,5.551 l -1.267,4.08 -9.009,3.793 c -2.497,1.052 -4.268,3.271 -4.738,5.938 l -1.085,6.144 c -0.644,3.648 1.285,7.217 4.692,8.679 l 7.88,3.319 -5.228,17.826 -12.972,7.983 c -3.531,2.172 -4.794,6.606 -2.94,10.313 l 5.831,11.574 -8.311,8.824 -7.955,0.378 c -2.272,0.109 -4.392,1.191 -5.816,2.967 z"
           inkscape:connector-curvature="0"
           style="fill:#933ec5" />
        <path
           id="path240"
           d="m 422.31,296.3 -9.319,-17.706 c -1.377,-2.616 -4.071,-4.241 -7.03,-4.241 -2.629,0 -5.073,1.293 -6.558,3.468 l -2.432,-3.04 c -1.515,-1.894 -3.775,-2.979 -6.202,-2.979 -1.437,0 -2.849,0.391 -4.083,1.132 l -22.045,13.227 c -2.104,1.261 -3.526,3.47 -3.805,5.907 l -1.877,16.424 c -0.256,2.246 0.459,4.5 1.962,6.185 1.726,1.935 4.28,2.921 6.912,2.594 l 18.67,-2.377 2.958,7.025 c 1.242,2.952 4.114,4.859 7.316,4.859 0,0 0,0 0.001,0 0.455,0 0.913,-0.04 1.362,-0.118 l 10.25,-1.782 c 2.514,-0.435 4.678,-2.068 5.79,-4.365 l 8.253,-17.056 c 1.091,-2.259 1.046,-4.935 -0.123,-7.157 z m -15.29,20.696 -10.205,1.774 -2.939,-6.982 c -1.243,-2.951 -4.115,-4.858 -7.317,-4.858 -0.326,0 -0.656,0.02 -0.986,0.062 l -18.665,2.407 1.849,-16.379 21.969,-13.242 2.483,3.104 c 1.515,1.894 3.774,2.979 6.198,2.979 2.627,0 5.065,-1.286 6.553,-3.453 l 9.272,17.564 z"
           inkscape:connector-curvature="0"
           style="fill:#933ec5" />
        <path
           id="path242"
           d="m 153.469,265.01 -37.698,-24.424 c -2.067,-1.339 -4.459,-2.047 -6.916,-2.047 -3.966,0 -7.648,1.844 -10.051,4.947 l -8.455,-4.733 -15.1,-21.496 h 7.702 c 1.836,0 3.627,-0.642 5.043,-1.807 l 28.637,-23.547 15.938,-9.032 c 1.94,-1.1 3.336,-2.977 3.829,-5.151 0.494,-2.175 0.045,-4.471 -1.231,-6.301 l -14.111,-20.227 c -1.531,-2.193 -4.057,-3.468 -6.713,-3.395 -2.673,0.067 -5.115,1.462 -6.532,3.729 l -7.273,11.782 -8.339,-9.378 16.573,-12.187 c 3.068,-2.257 4.102,-6.388 2.459,-9.822 l -4.086,-8.545 c -0.953,-1.992 -2.709,-3.509 -4.818,-4.161 -2.11,-0.653 -4.415,-0.391 -6.323,0.715 L 88.78,124.14 56.134,110.327 32.686,97.102 c -2.844,-1.604 -6.443,-1.283 -8.957,0.795 L 11.31,108.156 c -1.091,0.901 -1.923,2.08 -2.405,3.408 l -8.429,23.181 c -0.871,2.393 -0.534,5.079 0.9,7.185 1.435,2.105 3.811,3.4 6.358,3.467 l 17.89,0.422 11.355,28.074 -1.854,27.803 c -0.112,1.684 0.327,3.394 1.238,4.814 l 15.267,23.815 c 0.919,1.435 2.248,2.517 3.845,3.131 l 29.367,11.24 c 0.266,0.254 0.562,0.465 0.876,0.633 l 8.586,4.807 -4.611,6.916 c -1.646,2.469 -1.782,5.619 -0.355,8.222 l 9.663,17.604 -1.26,42.85 c -0.054,1.834 0.534,3.643 1.658,5.096 l 7.795,10.067 c 1.52,1.963 3.793,3.089 6.239,3.089 2.157,0 4.255,-0.882 5.756,-2.419 1.485,-1.521 2.274,-3.552 2.222,-5.719 l -0.358,-14.23 29.281,-28.035 c 1.052,-1.008 1.806,-2.283 2.18,-3.689 l 4.311,-16.166 c 0.888,-3.334 -0.46,-6.834 -3.356,-8.712 z m -95.103,-39.002 -15.258,-23.78 1.854,-27.803 c 0.079,-1.189 -0.115,-2.4 -0.561,-3.504 l -11.36,-28.102 c -1.187,-2.933 -3.997,-4.88 -7.158,-4.961 L 8.022,137.4 l 8.382,-23.076 12.352,-10.253 23.448,13.227 c 0.265,0.149 0.538,0.283 0.807,0.396 l 32.653,13.815 c 2.281,0.964 4.924,0.798 7.07,-0.441 l 7.194,-4.239 4.105,8.471 -16.574,12.186 c -1.79,1.316 -2.953,3.337 -3.191,5.545 -0.238,2.208 0.467,4.431 1.934,6.098 l 8.33,9.466 c 1.674,1.902 4.082,2.879 6.607,2.668 2.525,-0.206 4.744,-1.557 6.087,-3.705 l 7.321,-11.713 14.079,20.065 -15.932,9.029 c -0.394,0.222 -0.773,0.482 -1.134,0.777 l -28.608,23.54 c 0,0 -8.894,0.001 -8.941,0.002 -2.709,0.042 -5.164,1.583 -6.407,4.021 -1.277,2.505 -1.072,5.482 0.536,7.771 l 8.353,11.891 z m 86.433,61.79 -29.28,28.034 c -1.608,1.54 -2.5,3.699 -2.447,5.924 l 0.333,14.091 -7.669,-9.884 1.26,-42.851 c 0.041,-1.412 -0.295,-2.813 -0.975,-4.051 l -9.673,-17.572 8.563,-12.843 c 0.879,-1.32 2.354,-2.107 3.944,-2.107 0.91,0 1.797,0.263 2.566,0.762 l 37.673,24.358 z"
           inkscape:connector-curvature="0"
           style="fill:#933ec5" />
        <path
           id="path244"
           d="m 136.06,107.943 4.304,3.261 v 39.436 c 0,4.382 3.567,7.947 7.951,7.947 1.535,0 3.034,-0.45 4.335,-1.302 l 27.258,-17.822 c 1.707,-1.116 2.906,-2.823 3.378,-4.806 l 9.091,-38.182 c 0.678,-2.85 -0.261,-5.828 -2.45,-7.773 l -8.403,-7.47 c -2.229,-1.982 -5.52,-2.545 -8.282,-1.414 l -35.365,14.468 c -2.666,1.09 -4.485,3.446 -4.865,6.301 -0.38,2.855 0.759,5.605 3.048,7.356 z m 40.149,-20.731 8.384,7.411 -9.065,38.146 -27.165,17.76 v -39.324 c 0,-2.458 -1.165,-4.816 -3.117,-6.308 l -4.244,-3.245 z"
           inkscape:connector-curvature="0"
           style="fill:#933ec5" />
      </g>
      <g
         id="g248" />
      <g
         id="g250" />
      <g
         id="g252" />
      <g
         id="g254" />
      <g
         id="g256" />
      <g
         id="g258" />
      <g
         id="g260" />
      <g
         id="g262" />
      <g
         id="g264" />
      <g
         id="g266" />
      <g
         id="g268" />
      <g
         id="g270" />
      <g
         id="g272" />
      <g
         id="g274" />
      <g
         id="g276" />
    </g>
    <g
       id="g368"
       transform="matrix(0.22600879,0,0,0.22600879,83.949644,195.55859)">
      <g
         id="g311">
        <path
           id="path307"
           d="m 375.925,276.23 c -0.911,-2.865 -3.547,-4.791 -6.557,-4.791 -1.48,0 -2.895,0.469 -4.089,1.354 l -21.416,15.89 c -4.819,3.577 -8.326,8.74 -9.873,14.539 l -7.503,28.136 c -1.918,7.195 1.833,14.748 8.725,17.566 l 3.925,1.605 c 1.797,0.734 3.686,1.107 5.617,1.107 5.616,0 10.688,-3.108 13.235,-8.113 l 17.241,-33.867 c 4.496,-8.832 5.317,-18.897 2.313,-28.342 z m -7.823,29.798 -17.241,33.867 c -1.176,2.308 -3.516,3.742 -6.106,3.742 -0.887,0 -1.758,-0.172 -2.588,-0.512 l -3.925,-1.605 c -3.179,-1.3 -4.908,-4.783 -4.023,-8.102 l 7.503,-28.135 c 1.082,-4.059 3.536,-7.673 6.91,-10.176 l 20.15,-14.949 1.14,3.582 c 2.362,7.428 1.715,15.343 -1.82,22.288 z"
           inkscape:connector-curvature="0"
           style="fill:#933ec5" />
        <path
           id="path309"
           d="m 321.558,257.12 c -2.672,-16.517 3.949,-33.059 17.278,-43.171 l 20.13,-15.27 c 10.044,-7.62 16.855,-18.641 19.179,-31.033 l 1.014,-5.408 c 1.196,-6.381 -0.496,-12.904 -4.642,-17.899 -4.146,-4.995 -10.245,-7.859 -16.736,-7.859 -9.542,0 -21.853,-6.85 -26.882,-14.958 L 301.788,74.596 C 286.065,49.252 262.116,29.3 234.289,18.39 c -1.419,-0.555 -2.908,-0.836 -4.426,-0.836 -4.263,0 -8.266,2.275 -10.448,5.938 l -3.395,5.699 c -2.692,4.519 -7.634,7.326 -12.897,7.327 -2.06,0 -4.069,-0.42 -5.973,-1.247 l -10.337,-4.494 c -4.02,-1.748 -7.065,-5.153 -8.355,-9.343 -1.29,-4.19 -0.688,-8.719 1.653,-12.426 0.96,-1.519 1.076,-3.398 0.313,-5.027 C 179.662,2.357 178.148,1.248 176.37,1.015 170.418,0.237 164.432,-0.097 158.518,0.024 L 123.375,0.742 C 95.334,1.313 70.017,16.035 55.651,40.121 L 23.165,94.582 c -9.115,15.281 -8.591,34.697 1.335,49.465 l 15.983,23.78 c 6.192,9.213 16.513,14.713 27.608,14.713 1.416,0 2.848,-0.092 4.255,-0.272 l 51.29,-6.603 c 6.941,-0.896 13.911,1.707 18.58,6.895 3.832,4.256 5.74,9.667 5.436,15.343 -1.141,1.647 -1.686,3.604 -1.518,5.563 0.213,2.49 1.563,4.784 3.7,6.292 l 10.182,7.188 c 11.845,8.361 16.821,23.774 12.102,37.483 l -3.368,9.783 c -5.875,17.066 -5.579,35.757 0.832,52.629 l 23.074,60.723 c 3.908,10.284 13.534,17.237 24.524,17.714 l 20.845,0.906 c 0.4,0.018 0.799,0.026 1.197,0.026 6.873,0 13.455,-2.551 18.536,-7.182 l 17.277,-15.754 c 6.892,-6.284 11.187,-14.857 12.094,-24.142 l 1.147,-11.764 c 0.894,-9.166 5.873,-17.244 13.659,-22.162 l 5.313,-3.355 c 12.766,-8.063 19.456,-22.902 17.044,-37.807 z M 123.538,8.74 158.681,8.022 c 4.222,-0.087 8.476,0.076 12.744,0.483 -1.929,4.836 -2.172,10.221 -0.613,15.283 1.978,6.424 6.648,11.645 12.812,14.324 l 10.337,4.494 c 2.916,1.269 5.998,1.911 9.163,1.911 8.066,-0.001 15.642,-4.305 19.77,-11.233 l 3.396,-5.699 c 0.746,-1.254 2.116,-2.032 3.575,-2.032 0.517,0 1.025,0.097 1.567,0.308 26.169,10.26 48.741,29.065 63.559,52.95 l 12.147,19.581 -38.85,69.625 -26.725,-43.829 1.426,-24.25 c 0.087,-1.479 -0.65,-2.885 -1.917,-3.653 L 199.075,70.786 c -1.79,-1.086 -4.115,-0.608 -5.331,1.094 l -5.441,7.617 -13.389,-7.303 c -1.251,-0.683 -2.771,-0.646 -3.991,0.093 L 131.348,96.314 64.354,41.319 C 77.551,21.345 99.423,9.232 123.538,8.74 Z m 2.883,158.746 c -1.262,0 -2.542,0.082 -3.806,0.244 l -51.29,6.602 c -1.069,0.138 -2.157,0.207 -3.233,0.207 -8.427,0 -16.266,-4.178 -20.969,-11.176 L 31.14,139.583 C 22.932,127.371 22.498,111.315 30.036,98.679 L 60.14,48.21 l 68.321,56.086 c 1.311,1.076 3.159,1.21 4.614,0.327 l 40.028,-24.304 12.334,6.729 -1.4,57.426 -34.843,33.946 c -0.332,-0.413 -0.676,-0.818 -1.032,-1.213 -5.561,-6.178 -13.486,-9.721 -21.741,-9.721 z m 49.895,99.329 3.368,-9.783 c 5.87,-17.052 -0.32,-36.224 -15.053,-46.622 l -10.183,-7.188 c -0.203,-0.144 -0.331,-0.307 -0.342,-0.439 -0.012,-0.132 0.087,-0.314 0.263,-0.49 0.647,-0.649 1.054,-1.499 1.15,-2.41 0.52,-4.944 -0.243,-9.89 -2.123,-14.388 l 37.391,-36.428 c 0.749,-0.73 1.183,-1.723 1.208,-2.768 l 1.47,-60.268 4.629,-6.48 36.765,22.322 -1.357,23.096 c -0.048,0.813 0.154,1.621 0.578,2.316 l 36.727,60.23 -12.821,78.349 -31.84,6.922 c -1.834,0.399 -3.145,2.02 -3.15,3.896 l -0.07,22.608 -49.783,-0.974 c -1.368,-10.539 -0.324,-21.34 3.173,-31.501 z m 93.331,100.547 -17.276,15.754 c -3.813,3.475 -8.801,5.31 -13.996,5.075 l -20.845,-0.906 c -7.795,-0.339 -14.622,-5.27 -17.394,-12.564 l -23.074,-60.723 c -0.953,-2.509 -1.742,-5.065 -2.393,-7.65 l 67.366,1.318 38.073,31.058 -0.94,9.63 c -0.713,7.311 -4.094,14.061 -9.521,19.008 z m 33.333,-62.274 -5.314,3.355 c -7.872,4.972 -13.474,12.491 -16.009,21.221 l -35.635,-29.07 c -0.693,-0.565 -1.556,-0.882 -2.45,-0.899 l -12.647,-0.247 0.06,-19.526 31.357,-6.817 c 1.604,-0.349 2.833,-1.642 3.098,-3.263 l 13.5,-82.496 c 0.154,-0.943 -0.034,-1.911 -0.532,-2.727 l -5.338,-8.754 38.89,-69.695 12.141,19.57 c 6.52,10.509 21.314,18.741 33.681,18.741 4.103,0 7.96,1.811 10.581,4.969 2.62,3.157 3.689,7.282 2.934,11.316 l -1.014,5.408 c -1.956,10.436 -7.692,19.717 -16.15,26.134 l -20.13,15.27 c -15.692,11.904 -23.486,31.378 -20.34,50.821 l 2.737,16.925 c 1.897,11.732 -3.37,23.416 -13.42,29.764 z"
           inkscape:connector-curvature="0"
           style="fill:#933ec5" />
      </g>
      <g
         id="g313" />
      <g
         id="g315" />
      <g
         id="g317" />
      <g
         id="g319" />
      <g
         id="g321" />
      <g
         id="g323" />
      <g
         id="g325" />
      <g
         id="g327" />
      <g
         id="g329" />
      <g
         id="g331" />
      <g
         id="g333" />
      <g
         id="g335" />
      <g
         id="g337" />
      <g
         id="g339" />
      <g
         id="g341" />
    </g>
    <text
       xml:space="preserve"
       style="font-style:normal;font-weight:normal;font-size:10.58333302px;line-height:1.25;font-family:sans-serif;letter-spacing:0px;word-spacing:0px;fill:#000000;fill-opacity:1;stroke:none;stroke-width:0.26458332"
       x="0"
       y="87"
       id="text372"><tspan
         sodipodi:role="line"
         id="tspan370"
         x="0"
         y="96.36377"
         style="font-size:4.58611107px;stroke-width:0.26458332" /></text>
    <g
       id="g567"
       transform="matrix(0.19330225,0,0,0.19330225,177.58075,100.82588)">
      <g
         id="g466">
        <path
           id="path374"
           d="m 468.52,102.595 v 251.88 c 0,11.14 -7.571,20.52 -17.86,23.25 -1.98,0.531 -4.06,0.81 -6.2,0.81 H 38.58 c -13.29,0 -24.061,-10.77 -24.061,-24.06 v -251.88 c 0,-13.29 10.771,-24.06 24.061,-24.06 h 405.88 c 2.14,0 4.22,0.28 6.2,0.81 10.289,2.73 17.86,12.11 17.86,23.25"
           style="fill:#e6e6e6"
           inkscape:connector-curvature="0" />
        <path
           id="path376"
           d="m 468.518,102.591 v 23.94 h -454 v -23.94 c 0,-13.29 10.771,-24.06 24.06,-24.06 h 405.88 c 13.289,10e-4 24.06,10.771 24.06,24.06"
           style="fill:#b3b3b3"
           inkscape:connector-curvature="0" />
        <rect
           id="rect378"
           height="16.532"
           width="118.901"
           style="fill:#999999"
           y="141.002"
           x="42.098999" />
        <polyline
           id="polyline380"
           points="442.383,222.765 256.652,222.765 256.652,354.496 442.383,354.496 442.383,222.765  "
           style="fill:#ffffff" />
        <polyline
           id="polyline382"
           points="434.552,329.733 265.552,329.733 265.552,346.265 434.552,346.265 434.552,329.733  "
           style="fill:#29abe2" />
        <polyline
           id="polyline384"
           points="286.552,297.744 265.552,297.744 265.552,314.276 286.552,314.276 286.552,297.744  "
           style="fill:#fc7a51" />
        <polyline
           id="polyline386"
           points="350.552,265.754 265.552,265.754 265.552,282.286 350.552,282.286 350.552,265.754  "
           style="fill:#f9de58" />
        <polyline
           id="polyline388"
           points="411.552,233.765 265.552,233.765 265.552,250.297 411.552,250.297 411.552,233.765  "
           style="fill:#999999" />
        <circle
           id="circle390"
           r="15"
           cy="102.532"
           cx="47.516998"
           style="fill:#fc7a51" />
        <circle
           id="circle392"
           r="15"
           cy="102.532"
           cx="87.516998"
           style="fill:#f9de58" />
        <path
           id="path394"
           d="m 463.696,88.139 c 3.027,4.024 4.822,9.029 4.822,14.453 v 23.94 h -23.321 c 0.04,35.899 -19.42,70.584 -53.444,88.347 -2.102,0.921 -4.223,1.779 -6.365,2.574 l 2.774,5.313 h 54.222 V 354.497 H 298.563 l 7.326,24.038 h 138.57 c 2.14,0 4.22,-0.28 6.2,-0.81 10.29,-2.73 17.86,-12.11 17.86,-23.25 v -251.88 c 10e-4,-5.425 -1.794,-10.431 -4.823,-14.456 m -0.039,-0.051 c 0.012,0.016 0.023,0.031 0.036,0.047 -0.012,-0.015 -0.024,-0.032 -0.036,-0.047 m -0.036,-0.048 c 0.008,0.01 0.015,0.02 0.023,0.03 -0.008,-0.01 -0.015,-0.02 -0.023,-0.03 m -0.031,-0.041 c 0.003,0.004 0.006,0.008 0.009,0.012 -0.003,-0.004 -0.006,-0.008 -0.009,-0.012"
           style="fill:#eeeeee"
           inkscape:connector-curvature="0" />
        <path
           id="path396"
           d="m 444.46,78.535 h -11.739 c 0.396,0.716 0.784,1.437 1.165,2.167 7.655,14.662 11.293,30.36 11.31,45.83 h 23.321 v -23.94 c 0,-5.424 -1.795,-10.429 -4.822,-14.453 v 0 c -10e-4,-10e-4 -0.002,-0.002 -0.003,-0.003 v 0 c -0.012,-0.016 -0.023,-0.031 -0.036,-0.047 v 0 c -0.005,-0.006 -0.009,-0.012 -0.014,-0.018 v 0 c -0.008,-0.01 -0.015,-0.02 -0.023,-0.03 v 0 c -0.007,-0.01 -0.014,-0.019 -0.022,-0.029 v 0 C 463.594,88.008 463.591,88.004 463.588,88 v 0 c -3.187,-4.171 -7.708,-7.269 -12.93,-8.654 -1.978,-0.531 -4.058,-0.811 -6.198,-0.811"
           style="fill:#cbcbcb"
           inkscape:connector-curvature="0" />
        <path
           id="path398"
           d="m 442.383,222.765 h -54.222 l 5.326,10.202 c -0.519,0.271 -1.04,0.537 -1.561,0.798 h 19.626 v 16.532 H 266.807 l 4.711,15.457 h 79.034 v 16.532 h -73.996 l 4.711,15.458 h 5.285 v 16.532 h -0.246 l 4.711,15.457 h 143.536 v 16.532 H 296.055 l 2.509,8.231 H 442.383 V 222.765"
           style="fill:#ffffff"
           inkscape:connector-curvature="0" />
        <polyline
           id="polyline400"
           points="434.552,329.733 291.016,329.733 296.055,346.265 434.552,346.265 434.552,329.733  "
           style="fill:#6ec6eb" />
        <polyline
           id="polyline402"
           points="286.552,297.744 281.267,297.744 286.306,314.276 286.552,314.276 286.552,297.744  "
           style="fill:#fda589" />
        <polyline
           id="polyline404"
           points="350.552,265.754 271.518,265.754 276.556,282.286 350.552,282.286 350.552,265.754  "
           style="fill:#fbe98e" />
        <path
           id="path406"
           d="m 246.265,126.531 h -17.178 l 29.329,96.234 h 62.908 c -1.465,-0.282 -2.926,-0.591 -4.384,-0.929 l -1.001,-0.232 c -24.282,-7.625 -45.651,-24.51 -58.362,-48.855 -7.72,-14.787 -11.356,-30.621 -11.312,-46.218"
           style="fill:#eeeeee"
           inkscape:connector-curvature="0" />
        <path
           id="path408"
           d="m 258.73,78.535 h -44.27 l 14.628,47.996 h 17.178 c 0.028,-10.08 1.594,-20.062 4.587,-29.594 1.999,-6.368 4.636,-12.537 7.877,-18.402"
           style="fill:#cbcbcb"
           inkscape:connector-curvature="0" />
        <path
           id="path410"
           d="m 321.324,222.765 h -62.908 l 7.136,23.415 v -12.415 h 53.983 l 3.362,-10.708 c -0.524,-0.094 -1.049,-0.191 -1.573,-0.292"
           style="fill:#ffffff"
           inkscape:connector-curvature="0" />
        <path
           id="path412"
           d="m 411.552,233.765 h -19.626 c -14.25,7.129 -29.421,10.514 -44.383,10.514 -10.173,0 -20.251,-1.566 -29.869,-4.586 l 1.861,-5.928 h -53.983 v 12.415 l 1.255,4.117 h 144.745 v -16.532"
           style="fill:#bababa"
           inkscape:connector-curvature="0" />
        <path
           id="path414"
           d="m 385.387,217.453 c -6.196,2.3 -12.551,4.073 -18.994,5.313 h 21.767 l -2.773,-5.313"
           style="fill:#cecece"
           inkscape:connector-curvature="0" />
        <path
           id="path416"
           d="m 388.161,222.765 h -21.767 c -7.428,1.428 -14.973,2.147 -22.536,2.147 -6.999,0 -14.015,-0.616 -20.959,-1.855 l -3.362,10.708 h 72.391 c 0.521,-0.261 1.042,-0.527 1.561,-0.798 l -5.328,-10.202"
           style="fill:#dbdbdb"
           inkscape:connector-curvature="0" />
        <path
           id="path418"
           d="m 391.926,233.765 h -72.391 l -1.861,5.928 c 9.618,3.02 19.696,4.586 29.869,4.586 14.962,0 30.134,-3.385 44.383,-10.514"
           style="fill:#a4a4a4"
           inkscape:connector-curvature="0" />
        <path
           id="path420"
           d="m 345.64,27.261 c -15.507,0 -31.24,3.637 -45.936,11.309 -17.955,9.374 -31.855,23.466 -40.973,39.961 H 432.718 C 419.89,55.351 399.077,39.243 375.519,31.849 365.898,28.829 355.817,27.261 345.64,27.261"
           style="fill:#dbdbdb"
           inkscape:connector-curvature="0" />
        <polyline
           id="polyline422"
           points="432.719,78.532 258.732,78.532 258.73,78.535 432.721,78.535 432.719,78.532  "
           style="fill:#9f9f9f" />
        <path
           id="path424"
           d="M 445.196,126.531 H 246.265 c -0.044,15.597 3.592,31.43 11.312,46.218 12.711,24.345 34.08,41.23 58.362,48.855 l 1.001,0.232 c 1.458,0.338 2.919,0.647 4.384,0.929 h 45.069 c 6.443,-1.239 12.797,-3.012 18.994,-5.313 2.142,-0.795 4.263,-1.653 6.365,-2.574 34.024,-17.763 53.485,-52.447 53.444,-88.347"
           style="fill:#cecece"
           inkscape:connector-curvature="0" />
        <path
           id="path426"
           d="M 432.721,78.535 H 258.73 c -3.241,5.865 -5.878,12.033 -7.878,18.402 -2.993,9.532 -4.559,19.515 -4.587,29.594 h 198.931 c -0.017,-15.469 -3.656,-31.168 -11.31,-45.83 -0.381,-0.729 -0.769,-1.45 -1.165,-2.166"
           style="fill:#b2b2b2"
           inkscape:connector-curvature="0" />
        <path
           id="path428"
           d="m 366.393,222.765 h -45.069 c 0.524,0.101 1.049,0.198 1.574,0.292 6.945,1.239 13.96,1.855 20.959,1.855 7.563,0 15.108,-0.719 22.536,-2.147"
           style="fill:#dbdbdb"
           inkscape:connector-curvature="0" />
        <path
           id="path430"
           d="m 345.73,113.225 -5.24,16.69 -24.55,78.18 c -24.28,-7.62 -45.65,-24.51 -58.36,-48.85 -12.71,-24.35 -14.35,-51.53 -6.73,-75.81 l 83.46,26.2 z"
           style="fill:#f9de58"
           inkscape:connector-curvature="0" />
        <path
           id="path432"
           d="m 393.49,219.465 c -7.48,3.9 -15.23,6.76 -23.08,8.63 -17.7,4.21 -35.91,3.38 -52.74,-1.91 l 26.47,-84.29 3.32,-10.59 z"
           style="fill:#29abe2"
           inkscape:connector-curvature="0" />
        <path
           id="path434"
           d="m 391.75,201.375 -46.02,-88.15 -11.42,-3.59 -83.46,-26.2 c 7.63,-24.29 24.51,-45.66 48.85,-58.37 2.55,-1.33 5.12,-2.54 7.73,-3.62 22.27,-9.33 46.35,-9.93 68.09,-3.1 24.29,7.62 45.66,24.5 58.37,48.85 25.41,48.69 6.55,108.76 -42.14,134.18 z"
           style="fill:#fc7a51"
           inkscape:connector-curvature="0" />
        <polyline
           id="polyline436"
           points="226.383,168.765 40.652,168.765 40.652,354.496 226.383,354.496 226.383,168.765  "
           style="fill:#ffffff" />
        <polyline
           id="polyline438"
           points="93.6,254.001 57.602,254.001 57.602,343.996 93.6,343.996 93.6,254.001  "
           style="fill:#2be0c6" />
        <polyline
           id="polyline440"
           points="151.517,224.002 115.518,224.002 115.518,343.996 151.517,343.996 151.517,224.002  "
           style="fill:#f9de58" />
        <polyline
           id="polyline442"
           points="209.432,191.004 173.435,191.004 173.435,343.996 209.432,343.996 209.432,191.004  "
           style="fill:#fc7a51" />
        <polyline
           id="polyline444"
           points="242.83,325.765 242.83,454.765 0,454.765 0,325.765 242.83,325.765  "
           style="fill:#29abe2" />
        <polyline
           id="polyline446"
           points="15,439.765 15,340.765 227.826,340.765 227.826,439.765 15,439.765  "
           style="fill:#f2f2f2" />
        <polyline
           id="polyline448"
           points="108.064,430.978 87.408,408.6 78.664,420.466 71.9,415.483 86.68,395.426 106.349,416.734    137.239,360.959 160.785,398.8 188.393,349.552 195.722,353.66 161.162,415.307 137.661,377.538 108.064,430.978  "
           style="fill:#fc7a51" />
        <rect
           id="rect450"
           height="11"
           width="27"
           style="fill:#999999"
           y="357.76501"
           x="26" />
        <rect
           id="rect452"
           height="11"
           width="27"
           style="fill:#999999"
           y="384.76501"
           x="26" />
        <rect
           id="rect454"
           height="11"
           width="27"
           style="fill:#999999"
           y="411.76501"
           x="26" />
        <polyline
           id="polyline456"
           points="242.83,325.765 209.432,325.765 173.435,325.765 151.517,325.765 115.518,325.765    93.6,325.765 92.88,325.765 97.451,340.765 227.826,340.765 227.826,439.765 127.619,439.765 132.19,454.765 242.83,454.765    242.83,325.765  "
           style="fill:#6ec6eb" />
        <polyline
           id="polyline458"
           points="227.826,340.765 97.451,340.765 115.542,400.135 137.239,360.959 160.785,398.8    188.393,349.552 195.722,353.66 161.162,415.307 137.661,377.538 118.951,411.32 127.619,439.765 227.826,439.765 227.826,340.765     "
           style="fill:#f6f6f6" />
        <polyline
           id="polyline460"
           points="188.393,349.552 160.785,398.8 137.239,360.959 115.542,400.135 118.951,411.32    137.661,377.538 161.162,415.307 195.722,353.66 188.393,349.552  "
           style="fill:#fda589" />
      </g>
      <g
         id="g468" />
      <g
         id="g470" />
      <g
         id="g472" />
      <g
         id="g474" />
      <g
         id="g476" />
      <g
         id="g478" />
      <g
         id="g480" />
      <g
         id="g482" />
      <g
         id="g484" />
      <g
         id="g486" />
      <g
         id="g488" />
      <g
         id="g490" />
      <g
         id="g492" />
      <g
         id="g494" />
      <g
         id="g496" />
    </g>
    <text
       xml:space="preserve"
       style="font-style:normal;font-weight:normal;font-size:10.58333302px;line-height:1.25;font-family:sans-serif;letter-spacing:0px;word-spacing:0px;fill:#000000;fill-opacity:1;stroke:none;stroke-width:0.26458332"
       x="178.13531"
       y="150.03838"
       id="text571"><tspan
         sodipodi:role="line"
         id="tspan569"
         x="178.13531"
         y="159.40215"
         style="stroke-width:0.26458332" /></text>
    <ellipse
       style="opacity:0;fill:#522fff;fill-opacity:1;stroke:#009059;stroke-width:0.47599998;stroke-miterlimit:4;stroke-dasharray:none;stroke-opacity:1"
       id="path2467"
       cx="213.5004"
       cy="238.05817"
       rx="8.3828382"
       ry="6.8110561" />
    <path
       sodipodi:type="star"
       style="opacity:0;fill:#536c5d;fill-opacity:1;stroke:#009059;stroke-width:0.47599998;stroke-miterlimit:4;stroke-dasharray:none;stroke-opacity:1"
       id="path2469"
       sodipodi:sides="5"
       sodipodi:cx="20.957096"
       sodipodi:cy="213.69554"
       sodipodi:r1="18.717119"
       sodipodi:r2="9.3585596"
       sodipodi:arg1="0.8150924"
       sodipodi:arg2="1.4434109"
       inkscape:flatsided="false"
       inkscape:rounded="0"
       inkscape:randomized="0"
       d="m 33.793318,227.31765 -11.647299,-4.33938 -10.177711,7.13471 0.527783,-12.41818 -9.9305936,-7.47484 11.9734876,-3.33547 4.040267,-11.75441 6.872238,10.35674 12.427616,0.21021 -7.72621,9.7363 z"
       inkscape:transform-center-x="0.73479457"
       inkscape:transform-center-y="-1.0740145" />
    <circle
       style="opacity:0;fill:#466c5d;fill-opacity:0.37356323;stroke:#009059;stroke-width:0.47599998;stroke-miterlimit:4;stroke-dasharray:none;stroke-opacity:1"
       id="path2473"
       cx="141.72235"
       cy="213.9575"
       r="4.453383" />
    <ellipse
       style="opacity:1;fill:#62b9a9;fill-opacity:1;stroke:#009059;stroke-width:0;stroke-miterlimit:4;stroke-dasharray:none;stroke-opacity:1"
       id="path2477"
       cx="114.57081"
       cy="228.95276"
       rx="5.3244438"
       ry="4.938849"
       transform="matrix(0.99310471,-0.11723072,0.12604538,0.99202448,0,0)" />
  </g>
</svg>
