<?xml version="1.0" encoding="UTF-8" standalone="no"?>
<!-- Created with Inkscape (http://www.inkscape.org/) -->

<svg
   xmlns:dc="http://purl.org/dc/elements/1.1/"
   xmlns:cc="http://creativecommons.org/ns#"
   xmlns:rdf="http://www.w3.org/1999/02/22-rdf-syntax-ns#"
   xmlns:svg="http://www.w3.org/2000/svg"
   xmlns="http://www.w3.org/2000/svg"
   xmlns:sodipodi="http://sodipodi.sourceforge.net/DTD/sodipodi-0.dtd"
   xmlns:inkscape="http://www.inkscape.org/namespaces/inkscape"
   width="297mm"
   height="210mm"
   viewBox="0 0 297 210"
   version="1.1"
   id="svg62"
   inkscape:version="0.92.2 (unknown)"
   sodipodi:docname="p9.svg">
  <defs
     id="defs56" />
  <sodipodi:namedview
     id="base"
     pagecolor="#ffffff"
     bordercolor="#666666"
     borderopacity="1.0"
     inkscape:pageopacity="0.0"
     inkscape:pageshadow="2"
     inkscape:zoom="0.71"
     inkscape:cx="798.72481"
     inkscape:cy="278.30986"
     inkscape:document-units="mm"
     inkscape:current-layer="layer1"
     showgrid="false"
     inkscape:window-width="1855"
     inkscape:window-height="1056"
     inkscape:window-x="65"
     inkscape:window-y="24"
     inkscape:window-maximized="1" />
  <metadata
     id="metadata59">
    <rdf:RDF>
      <cc:Work
         rdf:about="">
        <dc:format>image/svg+xml</dc:format>
        <dc:type
           rdf:resource="http://purl.org/dc/dcmitype/StillImage" />
        <dc:title></dc:title>
      </cc:Work>
    </rdf:RDF>
  </metadata>
  <g
     inkscape:groupmode="layer"
     id="layer2"
     inkscape:label="2">
    <rect
       style="fill:#ffd5d5;fill-opacity:1;stroke-width:0.25409606"
       id="rect906"
       width="101.73415"
       height="210.17606"
       x="0.52916938"
       y="-0.11642945" />
    <rect
       style="fill:#e5ffd5;fill-opacity:1;stroke-width:0.24701679"
       id="rect906-3"
       width="96.144363"
       height="210.17606"
       x="102.26332"
       y="-0.11642945" />
    <rect
       style="fill:#d5f6ff;fill-opacity:1;stroke-width:0.25034535"
       id="rect906-3-6"
       width="98.75293"
       height="210.17606"
       x="198.40768"
       y="-0.11642838" />
  </g>
  <g
     inkscape:label="Layer 1"
     inkscape:groupmode="layer"
     id="layer1"
     transform="translate(0,-87)">
    <g
       id="g649"
       transform="matrix(0.15582406,0,0,0.15582406,9.8410203,164.21418)">
      <path
         id="path573"
         d="M 111.997,279 H 70.998 C 31.85,279 0,247.149 0,208.001 0,168.853 31.85,137.003 70.998,137.003 h 40.999 V 279 Z M 70.998,167.003 c -22.606,0 -40.999,18.393 -40.999,40.999 0,22.606 18.393,40.998 40.999,40.998 h 11 v -81.998 h -11 z"
         style="fill:#ffdb2d"
         inkscape:connector-curvature="0" />
      <path
         id="path575"
         d="M 81.998,208.001 V 249 h -11 C 48.392,249 29.999,230.607 29.999,208.001 H 0 C 0,247.149 31.85,279 70.998,279 h 40.999 v -70.998 z"
         style="fill:#ff9a00"
         inkscape:connector-curvature="0" />
      <path
         id="path577"
         d="M 351.99,167.003 H 81.998 v -15 c 0,-41.354 33.644,-74.998 74.998,-74.998 h 119.997 c 41.354,0 74.998,33.644 74.998,74.998 v 15 z"
         style="fill:#ff738e"
         inkscape:connector-curvature="0" />
      <path
         id="path579"
         d="m 351.99,152.003 c 0,-41.354 -33.644,-74.998 -74.998,-74.998 h -59.998 v 89.998 H 351.99 Z"
         style="fill:#ff3c62"
         inkscape:connector-curvature="0" />
      <path
         id="path581"
         d="M 340.943,328.998 H 81.998 V 137.003 h 269.93 v 65.462 l 62.012,-19.357 30.562,-17.623 c 21.479,-12.384 49.045,-5.005 61.447,16.452 6.01,10.396 7.609,22.508 4.501,34.107 -3.109,11.605 -10.558,21.304 -20.972,27.309 z"
         style="fill:#fc0025"
         inkscape:connector-curvature="0" />
      <path
         id="path583"
         d="m 451.988,434.995 c -16.026,0 -31.093,-6.241 -42.425,-17.574 -11.332,-11.333 -17.574,-26.399 -17.574,-42.425 0,-16.026 6.241,-31.093 17.574,-42.425 l 42.425,-42.426 42.425,42.426 c 11.333,11.333 17.574,26.399 17.574,42.425 0,16.026 -6.241,31.093 -17.574,42.425 -11.333,11.332 -26.4,17.574 -42.425,17.574 z"
         style="fill:#ffdb2d"
         inkscape:connector-curvature="0" />
      <path
         id="path585"
         d="m 494.413,332.572 -42.425,-42.426 v 144.849 c 16.026,0 31.093,-6.241 42.425,-17.574 11.332,-11.333 17.574,-26.399 17.574,-42.425 0,-16.026 -6.242,-31.092 -17.574,-42.424 z"
         style="fill:#ff9a00"
         inkscape:connector-curvature="0" />
      <path
         id="path587"
         d="m 505.949,181.937 c -12.403,-21.456 -39.968,-28.835 -61.447,-16.452 l -30.562,17.623 -62.012,19.357 V 137.003 H 216.994 v 191.995 h 123.949 l 148.536,-85.645 c 10.415,-6.005 17.863,-15.705 20.972,-27.309 3.107,-11.598 1.508,-23.711 -4.502,-34.107 z"
         style="fill:#990011"
         inkscape:connector-curvature="0" />
      <g
         id="g589" />
      <g
         id="g591" />
      <g
         id="g593" />
      <g
         id="g595" />
      <g
         id="g597" />
      <g
         id="g599" />
      <g
         id="g601" />
      <g
         id="g603" />
      <g
         id="g605" />
      <g
         id="g607" />
      <g
         id="g609" />
      <g
         id="g611" />
      <g
         id="g613" />
      <g
         id="g615" />
      <g
         id="g617" />
    </g>
    <g
       id="g748"
       transform="matrix(0.1603099,0,0,0.1603099,108.75903,156.69809)">
      <path
         id="path651"
         d="M 166.594,428.703 V 332.498 C 111.778,300.658 77.744,241.587 77.744,178.256 77.744,79.965 157.709,0 256,0 c 98.291,0 178.256,79.965 178.256,178.256 0,63.328 -34.04,122.4 -88.85,154.242 v 96.205 z"
         style="fill:#a5be00"
         inkscape:connector-curvature="0" />
      <path
         id="path653"
         d="M 205.466,419.818 V 310.123 l -19.347,-11.238 c -42.871,-24.901 -69.503,-71.124 -69.503,-120.629 0,-76.857 62.527,-139.384 139.384,-139.384 76.857,0 139.384,62.527 139.384,139.384 0,49.501 -26.633,95.723 -69.505,120.63 l -19.345,11.238 V 419.817 H 205.466 Z"
         style="fill:#c5ce09"
         inkscape:connector-curvature="0" />
      <rect
         id="rect655"
         height="262.319"
         width="16.659"
         style="fill:#38261a"
         y="179.056"
         x="247.67" />
      <g
         id="g661">
        <path
           id="path657"
           d="m 303.441,234.325 c -12.298,0 -23.982,-4.618 -32.901,-13.004 l -0.127,-0.119 c -4.989,-4.69 -8.892,-10.414 -11.438,-16.771 v 0 c -8.79,-21.635 -0.786,-46.312 19.03,-58.677 6.696,-4.178 17.531,-6.21 33.125,-6.21 13.641,0 30.999,1.64 47.623,4.5 h 0.001 c 5.231,0.9 8.511,6.155 7.021,11.25 v 0 c -4.084,13.966 -18.822,60.415 -37.029,71.776 -7.606,4.745 -16.354,7.254 -25.3,7.254 -0.002,10e-4 -0.004,10e-4 -0.005,10e-4 z"
           style="fill:#679436"
           inkscape:connector-curvature="0" />
        <path
           id="path659"
           d="m 208.556,234.324 c -8.946,0 -17.695,-2.508 -25.3,-7.252 -18.184,-11.347 -32.938,-57.806 -37.026,-71.774 v 0 c -1.492,-5.094 1.789,-10.352 7.02,-11.252 v 0 c 16.623,-2.859 33.98,-4.499 47.619,-4.499 15.593,0 26.429,2.03 33.123,6.208 19.816,12.365 27.819,37.042 19.03,58.677 l -0.814,1.81 c -2.556,5.685 -6.21,10.81 -10.751,15.079 v 0 c -8.916,8.385 -20.602,13.003 -32.901,13.003 z"
           style="fill:#679436"
           inkscape:connector-curvature="0" />
      </g>
      <g
         id="g667">
        <path
           id="path663"
           d="m 303.604,221.32 -0.127,-0.119 c -4.989,-4.69 -8.892,-10.414 -11.438,-16.771 -8.79,-21.635 -0.786,-46.312 19.03,-58.677 4.305,-2.687 10.331,-4.48 18.221,-5.422 -6.466,-0.513 -12.622,-0.787 -18.16,-0.787 -15.593,0 -26.428,2.031 -33.125,6.21 -19.816,12.365 -27.819,37.042 -19.03,58.677 2.546,6.356 6.449,12.08 11.438,16.771 l 0.127,0.119 c 8.919,8.386 20.602,13.004 32.901,13.004 0.001,0 0.003,0 0.003,0 5.651,0 11.221,-1.006 16.476,-2.94 -6.006,-2.2 -11.557,-5.59 -16.316,-10.065 z"
           style="fill:#5b891f"
           inkscape:connector-curvature="0" />
        <path
           id="path665"
           d="m 216.319,227.071 c -18.184,-11.347 -32.938,-57.806 -37.026,-71.774 -1.492,-5.094 1.789,-10.352 7.02,-11.252 v 0 c 9.873,-1.698 20.001,-2.962 29.461,-3.712 -4.384,-0.523 -9.335,-0.787 -14.904,-0.787 -13.64,0 -30.997,1.64 -47.619,4.499 v 0 c -5.232,0.9 -8.512,6.157 -7.02,11.252 4.088,13.969 18.842,60.428 37.026,71.774 7.606,4.745 16.354,7.252 25.3,7.252 5.736,0 11.335,-1.017 16.586,-2.94 -3.065,-1.125 -6.023,-2.565 -8.824,-4.312 z"
           style="fill:#5b891f"
           inkscape:connector-curvature="0" />
      </g>
      <g
         id="g673">
        <path
           id="path669"
           d="m 183.809,512 c -15.617,0 -28.321,-12.704 -28.321,-28.321 0,-15.617 12.704,-28.321 28.321,-28.321 h 144.382 c 15.617,0 28.321,12.704 28.321,28.321 0,15.617 -12.704,28.321 -28.321,28.321 z"
           style="fill:#427aa1"
           inkscape:connector-curvature="0" />
        <path
           id="path671"
           d="m 183.809,456.469 c -15.617,0 -28.321,-12.704 -28.321,-28.321 0,-15.617 12.704,-28.321 28.321,-28.321 h 144.382 c 15.617,0 28.321,12.704 28.321,28.321 0,15.617 -12.704,28.321 -28.321,28.321 z"
           style="fill:#427aa1"
           inkscape:connector-curvature="0" />
      </g>
      <g
         id="g679">
        <path
           id="path675"
           d="m 207.075,483.679 c 0,-15.617 12.704,-28.321 28.321,-28.321 h -51.587 c -15.617,0 -28.321,12.704 -28.321,28.321 0,15.617 12.704,28.321 28.321,28.321 h 51.587 c -15.616,0 -28.321,-12.704 -28.321,-28.321 z"
           style="fill:#17688c"
           inkscape:connector-curvature="0" />
        <path
           id="path677"
           d="m 207.075,428.148 c 0,-15.617 12.704,-28.321 28.321,-28.321 h -51.587 c -15.617,0 -28.321,12.704 -28.321,28.321 0,15.617 12.704,28.321 28.321,28.321 h 51.587 c -15.616,0 -28.321,-12.705 -28.321,-28.321 z"
           style="fill:#17688c"
           inkscape:connector-curvature="0" />
      </g>
      <g
         id="g681" />
      <g
         id="g683" />
      <g
         id="g685" />
      <g
         id="g687" />
      <g
         id="g689" />
      <g
         id="g691" />
      <g
         id="g693" />
      <g
         id="g695" />
      <g
         id="g697" />
      <g
         id="g699" />
      <g
         id="g701" />
      <g
         id="g703" />
      <g
         id="g705" />
      <g
         id="g707" />
      <g
         id="g709" />
    </g>
    <g
       id="g904"
       transform="matrix(0.15395188,0,0,0.15395188,205.89054,161.44403)">
      <path
         id="path750"
         d="M 114.357,397.642 43.566,503.83 H 8.171 c 0,-58.646 47.542,-106.188 106.186,-106.188 z"
         style="fill:#c8e6ff"
         inkscape:connector-curvature="0" />
      <path
         id="path752"
         d="m 114.357,397.642 c 32.117,0 60.902,14.259 80.373,36.79 L 149.813,503.83 H 43.566 c 0,-58.646 31.694,-106.188 70.791,-106.188 z"
         style="fill:#add9ff"
         inkscape:connector-curvature="0" />
      <path
         id="path754"
         d="m 397.644,397.642 70.791,106.188 h 35.396 C 503.83,445.184 456.288,397.642 397.644,397.642 Z"
         style="fill:#ed2f49"
         inkscape:connector-curvature="0" />
      <path
         id="path756"
         d="m 397.644,397.642 c -32.117,0 -60.902,14.259 -80.373,36.79 l 44.917,69.397 H 468.436 C 468.435,445.184 436.741,397.642 397.644,397.642 Z"
         style="fill:#ff455e"
         inkscape:connector-curvature="0" />
      <path
         id="path758"
         d="m 235.956,8.913 c -2.149,-0.479 -4.38,-0.743 -6.675,-0.743 -16.885,0 -30.573,13.688 -30.573,30.573 0,6.922 2.301,13.304 6.179,18.429 L 256,124.732 Z"
         style="fill:#fe7074"
         inkscape:connector-curvature="0" />
      <path
         id="path760"
         d="m 282.72,8.17 c -2.294,0 -4.525,0.264 -6.674,0.743 l -20.045,115.819 51.114,-67.56 c 3.878,-5.124 6.179,-11.507 6.179,-18.429 C 313.293,21.858 299.605,8.17 282.72,8.17 Z"
         style="fill:#ed2f49"
         inkscape:connector-curvature="0" />
      <path
         id="path762"
         d="m 290.376,38.743 c 0,-14.587 -6.131,-26.78 -14.331,-29.83 -8.619,1.923 -15.867,7.477 -20.044,14.983 -4.178,-7.506 -11.425,-13.06 -20.044,-14.983 -8.2,3.051 -14.331,15.243 -14.331,29.83 0,6.922 1.381,13.304 3.707,18.429 l 30.667,67.56 30.669,-67.56 c 2.326,-5.124 3.707,-11.507 3.707,-18.429 z"
         style="fill:#ff455e"
         inkscape:connector-curvature="0" />
      <path
         id="path764"
         d="M 185.179,132.902 V 240.23 c 29.637,0 53.664,-24.026 53.664,-53.664 0,-29.638 -24.026,-53.664 -53.664,-53.664 z"
         style="fill:#a0613c"
         inkscape:connector-curvature="0" />
      <path
         id="path766"
         d="m 218.804,186.566 c 0,-29.638 -15.054,-53.664 -33.625,-53.664 -29.638,0 -53.664,24.026 -53.664,53.664 0,29.638 24.026,53.664 53.664,53.664 18.571,0 33.625,-24.025 33.625,-53.664 z"
         style="fill:#bf7447"
         inkscape:connector-curvature="0" />
      <path
         id="path768"
         d="m 256.001,258.179 v 107.379 c 29.652,0 53.689,-24.037 53.689,-53.689 0,-29.652 -24.037,-53.69 -53.689,-53.69 z"
         style="fill:#febb8e"
         inkscape:connector-curvature="0" />
      <path
         id="path770"
         d="m 289.642,311.869 c 0,-29.652 -15.062,-53.69 -33.642,-53.69 -29.651,0 -53.689,24.038 -53.689,53.69 0,29.652 24.038,53.689 53.689,53.689 18.58,0 33.642,-24.038 33.642,-53.689 z"
         style="fill:#fcd5a2"
         inkscape:connector-curvature="0" />
      <path
         id="path772"
         d="m 114.357,256 v 111.737 c 30.855,0 55.868,-25.013 55.868,-55.868 C 170.226,281.013 145.212,256 114.357,256 Z"
         style="fill:#feab75"
         inkscape:connector-curvature="0" />
      <path
         id="path774"
         d="m 149.364,311.869 c 0,-30.855 -15.673,-55.869 -35.007,-55.869 -30.855,0 -55.868,25.013 -55.868,55.869 0,30.855 25.013,55.868 55.868,55.868 19.334,0 35.007,-25.013 35.007,-55.868 z"
         style="fill:#ff9b5f"
         inkscape:connector-curvature="0" />
      <path
         id="path776"
         d="M 397.644,258.178 V 365.56 c 29.652,0 53.69,-24.038 53.69,-53.69 0,-29.655 -24.038,-53.692 -53.69,-53.692 z"
         style="fill:#804e30"
         inkscape:connector-curvature="0" />
      <path
         id="path778"
         d="m 431.285,311.869 c 0,-29.652 -15.062,-53.691 -33.642,-53.691 -29.652,0 -53.69,24.038 -53.69,53.691 0,29.652 24.038,53.69 53.69,53.69 18.58,0 33.642,-24.038 33.642,-53.69 z"
         style="fill:#a0613c"
         inkscape:connector-curvature="0" />
      <path
         id="path780"
         d="m 256.001,397.642 70.791,106.188 h 35.396 C 362.187,445.184 314.646,397.642 256.001,397.642 Z"
         style="fill:#ffbb02"
         inkscape:connector-curvature="0" />
      <path
         id="path782"
         d="m 256.001,397.642 c -58.646,0 -106.187,47.542 -106.187,106.188 h 176.978 c 0,-58.646 -31.694,-106.188 -70.791,-106.188 z"
         style="fill:#ffcc3d"
         inkscape:connector-curvature="0" />
      <path
         id="path784"
         d="M 326.822,132.902 V 240.23 c 29.637,0 53.664,-24.026 53.664,-53.664 0,-29.638 -24.027,-53.664 -53.664,-53.664 z"
         style="fill:#feab75"
         inkscape:connector-curvature="0" />
      <path
         id="path786"
         d="m 360.447,186.566 c 0,-29.638 -15.055,-53.664 -33.625,-53.664 -29.638,0 -53.664,24.026 -53.664,53.664 0,29.638 24.026,53.664 53.664,53.664 18.57,0 33.625,-24.025 33.625,-53.664 z"
         style="fill:#febb8e"
         inkscape:connector-curvature="0" />
      <g
         id="g816">
        <path
           id="path788"
           d="m 249.485,129.661 c 1.544,2.041 3.955,3.241 6.515,3.241 2.56,0 4.972,-1.199 6.515,-3.241 l 51.113,-67.56 c 5.125,-6.773 7.834,-14.85 7.834,-23.358 C 321.464,17.381 304.084,0 282.719,0 272.636,0 263.106,3.934 256,10.702 248.895,3.934 239.365,0 229.282,0 c -21.363,0 -38.744,17.381 -38.744,38.743 0,8.509 2.708,16.587 7.834,23.358 z M 229.282,16.34 c 8.119,0 15.621,4.417 19.581,11.529 1.441,2.591 4.173,4.196 7.139,4.196 2.966,0 5.697,-1.606 7.139,-4.196 3.959,-7.111 11.46,-11.529 19.579,-11.529 12.353,0 22.403,10.05 22.403,22.403 0,4.921 -1.564,9.587 -4.524,13.499 L 256.002,111.19 211.404,52.241 c -2.96,-3.911 -4.523,-8.579 -4.523,-13.499 -0.003,-12.351 10.047,-22.402 22.401,-22.402 z"
           style="fill:#1d2328"
           inkscape:connector-curvature="0" />
        <path
           id="path790"
           d="m 185.179,247.83 c 33.781,0 61.264,-27.484 61.264,-61.264 0,-33.781 -27.484,-61.264 -61.264,-61.264 -33.781,0 -61.264,27.482 -61.264,61.264 0,33.78 27.484,61.264 61.264,61.264 z m 0,-106.187 c 24.771,0 44.923,20.152 44.923,44.923 0,24.771 -20.152,44.923 -44.923,44.923 -24.771,0 -44.923,-20.152 -44.923,-44.923 0,-24.771 20.152,-44.923 44.923,-44.923 z"
           style="fill:#1d2328"
           inkscape:connector-curvature="0" />
        <path
           id="path792"
           d="m 185.117,215.149 c 9.499,0 18.356,-4.71 23.689,-12.602 2.527,-3.739 1.546,-8.817 -2.193,-11.345 -3.736,-2.526 -8.816,-1.546 -11.344,2.193 -2.293,3.39 -6.087,5.413 -10.153,5.413 -4.012,0 -7.78,-1.983 -10.078,-5.303 -2.568,-3.71 -7.655,-4.637 -11.369,-2.069 -3.709,2.568 -4.636,7.657 -2.068,11.367 5.352,7.731 14.141,12.346 23.516,12.346 z"
           style="fill:#1d2328"
           inkscape:connector-curvature="0" />
        <path
           id="path794"
           d="m 194.737,311.869 c 0,33.781 27.484,61.264 61.264,61.264 33.78,0 61.264,-27.482 61.264,-61.264 0,-33.782 -27.483,-61.264 -61.264,-61.264 -33.781,0 -61.264,27.483 -61.264,61.264 z m 106.187,0 c 0,24.771 -20.152,44.923 -44.923,44.923 -24.771,0 -44.923,-20.152 -44.923,-44.923 0,-24.771 20.152,-44.923 44.923,-44.923 24.771,0 44.923,20.152 44.923,44.923 z"
           style="fill:#1d2328"
           inkscape:connector-curvature="0" />
        <path
           id="path796"
           d="m 245.86,318.808 c -2.567,-3.71 -7.655,-4.638 -11.369,-2.069 -3.709,2.568 -4.636,7.657 -2.068,11.367 5.35,7.73 14.139,12.345 23.514,12.345 9.499,0 18.356,-4.71 23.689,-12.602 2.527,-3.739 1.546,-8.817 -2.193,-11.345 -3.737,-2.527 -8.816,-1.544 -11.344,2.193 -2.292,3.39 -6.087,5.413 -10.153,5.413 -4.01,10e-4 -7.778,-1.981 -10.076,-5.302 z"
           style="fill:#1d2328"
           inkscape:connector-curvature="0" />
        <path
           id="path798"
           d="m 114.358,373.133 c 33.781,0 61.264,-27.482 61.264,-61.264 0,-33.782 -27.484,-61.264 -61.264,-61.264 -33.781,0 -61.264,27.484 -61.264,61.264 0,33.78 27.483,61.264 61.264,61.264 z m 0,-106.188 c 24.771,0 44.923,20.153 44.923,44.923 0,24.771 -20.152,44.923 -44.923,44.923 -24.771,0 -44.923,-20.152 -44.923,-44.923 -0.001,-24.77 20.151,-44.923 44.923,-44.923 z"
           style="fill:#1d2328"
           inkscape:connector-curvature="0" />
        <path
           id="path800"
           d="m 114.358,340.452 c 9.499,0 18.356,-4.71 23.689,-12.602 2.527,-3.739 1.546,-8.817 -2.193,-11.345 -3.737,-2.527 -8.816,-1.544 -11.344,2.193 -2.292,3.39 -6.087,5.413 -10.153,5.413 -4.012,0 -7.78,-1.983 -10.078,-5.303 -2.567,-3.71 -7.654,-4.638 -11.369,-2.069 -3.709,2.568 -4.636,7.657 -2.068,11.367 5.352,7.731 14.141,12.346 23.516,12.346 z"
           style="fill:#1d2328"
           inkscape:connector-curvature="0" />
        <path
           id="path802"
           d="m 164.48,409.841 c 1.814,-4.132 -0.064,-8.951 -4.196,-10.766 -14.509,-6.372 -29.961,-9.602 -45.926,-9.602 -63.056,-0.001 -114.357,51.3 -114.357,114.357 0,4.512 3.657,8.17 8.17,8.17 4.513,0 8.17,-3.658 8.17,-8.17 0,-54.047 43.97,-98.017 98.017,-98.017 13.689,0 26.931,2.767 39.356,8.224 4.134,1.812 8.952,-0.065 10.766,-4.196 z"
           style="fill:#1d2328"
           inkscape:connector-curvature="0" />
        <path
           id="path804"
           d="m 336.379,311.869 c 0,33.781 27.483,61.264 61.264,61.264 33.781,0 61.264,-27.482 61.264,-61.264 0,-33.782 -27.482,-61.264 -61.264,-61.264 -33.78,-10e-4 -61.264,27.483 -61.264,61.264 z m 61.264,-44.924 c 24.771,0 44.923,20.153 44.923,44.923 0,24.771 -20.152,44.923 -44.923,44.923 -24.771,0 -44.923,-20.152 -44.923,-44.923 0,-24.77 20.152,-44.923 44.923,-44.923 z"
           style="fill:#1d2328"
           inkscape:connector-curvature="0" />
        <path
           id="path806"
           d="m 397.581,340.452 c 9.499,0 18.356,-4.71 23.689,-12.602 2.527,-3.739 1.546,-8.817 -2.193,-11.345 -3.735,-2.527 -8.817,-1.544 -11.344,2.193 -2.292,3.39 -6.087,5.413 -10.153,5.413 -4.012,0 -7.78,-1.983 -10.078,-5.303 -2.567,-3.71 -7.655,-4.638 -11.369,-2.069 -3.709,2.568 -4.636,7.657 -2.068,11.367 5.351,7.731 14.14,12.346 23.516,12.346 z"
           style="fill:#1d2328"
           inkscape:connector-curvature="0" />
        <path
           id="path808"
           d="m 397.643,389.472 c -15.965,0 -31.416,3.23 -45.924,9.602 -4.132,1.814 -6.01,6.634 -4.196,10.766 1.814,4.131 6.633,6.009 10.766,4.196 12.424,-5.457 25.665,-8.223 39.354,-8.223 54.047,0 98.017,43.97 98.017,98.017 0,4.512 3.657,8.17 8.17,8.17 4.513,0 8.17,-3.658 8.17,-8.17 0,-63.057 -51.3,-114.358 -114.357,-114.358 z"
           style="fill:#1d2328"
           inkscape:connector-curvature="0" />
        <path
           id="path810"
           d="m 256.001,389.473 c -63.058,0 -114.358,51.3 -114.358,114.357 0,4.512 3.657,8.17 8.17,8.17 4.513,0 8.17,-3.658 8.17,-8.17 0,-54.047 43.97,-98.016 98.017,-98.016 54.047,0 98.017,43.97 98.017,98.016 0,4.512 3.657,8.17 8.17,8.17 4.513,0 8.17,-3.658 8.17,-8.17 10e-4,-63.057 -51.299,-114.357 -114.356,-114.357 z"
           style="fill:#1d2328"
           inkscape:connector-curvature="0" />
        <path
           id="path812"
           d="m 265.557,186.566 c 0,33.781 27.483,61.264 61.264,61.264 33.781,0 61.264,-27.484 61.264,-61.264 0,-33.781 -27.482,-61.264 -61.264,-61.264 -33.78,10e-4 -61.264,27.483 -61.264,61.264 z m 61.265,-44.923 c 24.771,0 44.923,20.152 44.923,44.923 0,24.771 -20.152,44.923 -44.923,44.923 -24.771,0 -44.923,-20.152 -44.923,-44.923 0,-24.771 20.151,-44.923 44.923,-44.923 z"
           style="fill:#1d2328"
           inkscape:connector-curvature="0" />
        <path
           id="path814"
           d="m 326.759,215.149 c 9.499,0 18.356,-4.71 23.689,-12.602 2.527,-3.739 1.546,-8.817 -2.193,-11.345 -3.737,-2.526 -8.816,-1.546 -11.344,2.193 -2.293,3.39 -6.087,5.413 -10.153,5.413 -4.012,0 -7.78,-1.983 -10.078,-5.303 -2.568,-3.71 -7.655,-4.637 -11.367,-2.069 -3.709,2.568 -4.636,7.657 -2.068,11.367 5.35,7.731 14.14,12.346 23.514,12.346 z"
           style="fill:#1d2328"
           inkscape:connector-curvature="0" />
      </g>
      <g
         id="g818" />
      <g
         id="g820" />
      <g
         id="g822" />
      <g
         id="g824" />
      <g
         id="g826" />
      <g
         id="g828" />
      <g
         id="g830" />
      <g
         id="g832" />
      <g
         id="g834" />
      <g
         id="g836" />
      <g
         id="g838" />
      <g
         id="g840" />
      <g
         id="g842" />
      <g
         id="g844" />
      <g
         id="g846" />
    </g>
  </g>
</svg>
