<?xml version="1.0" encoding="UTF-8" standalone="no"?>
<!-- Created with Inkscape (http://www.inkscape.org/) -->

<svg
   xmlns:dc="http://purl.org/dc/elements/1.1/"
   xmlns:cc="http://creativecommons.org/ns#"
   xmlns:rdf="http://www.w3.org/1999/02/22-rdf-syntax-ns#"
   xmlns:svg="http://www.w3.org/2000/svg"
   xmlns="http://www.w3.org/2000/svg"
   xmlns:xlink="http://www.w3.org/1999/xlink"
   xmlns:sodipodi="http://sodipodi.sourceforge.net/DTD/sodipodi-0.dtd"
   xmlns:inkscape="http://www.inkscape.org/namespaces/inkscape"
   width="297mm"
   height="210mm"
   viewBox="0 0 297 210"
   version="1.1"
   id="svg62"
   inkscape:version="0.92.2 (unknown)"
   sodipodi:docname="Q9Image.svg">
  <defs
     id="defs56">
    <linearGradient
       inkscape:collect="always"
       id="linearGradient1479">
      <stop
         style="stop-color:#621fa9;stop-opacity:1;"
         offset="0"
         id="stop1475" />
      <stop
         style="stop-color:#621fa9;stop-opacity:0;"
         offset="1"
         id="stop1477" />
    </linearGradient>
    <linearGradient
       inkscape:collect="always"
       id="linearGradient1471">
      <stop
         style="stop-color:#621fa9;stop-opacity:1;"
         offset="0"
         id="stop1467" />
      <stop
         style="stop-color:#621fa9;stop-opacity:0;"
         offset="1"
         id="stop1469" />
    </linearGradient>
    <linearGradient
       inkscape:collect="always"
       xlink:href="#linearGradient1471"
       id="linearGradient1473"
       x1="45.892152"
       y1="393.74487"
       x2="183.79373"
       y2="393.74487"
       gradientUnits="userSpaceOnUse"
       gradientTransform="matrix(1.1948419,0,0,1.0863092,-8.9959379,-57.223238)" />
    <linearGradient
       inkscape:collect="always"
       xlink:href="#linearGradient1479"
       id="linearGradient1481"
       x1="52.777203"
       y1="707.27859"
       x2="289.80816"
       y2="707.27859"
       gradientUnits="userSpaceOnUse"
       gradientTransform="matrix(1.1659487,0,0,1.2616805,-8.707492,-173.8134)" />
  </defs>
  <sodipodi:namedview
     id="base"
     pagecolor="#ffffff"
     bordercolor="#666666"
     borderopacity="1.0"
     inkscape:pageopacity="0.0"
     inkscape:pageshadow="2"
     inkscape:zoom="0.71"
     inkscape:cx="579.71073"
     inkscape:cy="423.77216"
     inkscape:document-units="mm"
     inkscape:current-layer="g1202"
     showgrid="false"
     inkscape:window-width="1855"
     inkscape:window-height="1056"
     inkscape:window-x="65"
     inkscape:window-y="24"
     inkscape:window-maximized="1" />
  <metadata
     id="metadata59">
    <rdf:RDF>
      <cc:Work
         rdf:about="">
        <dc:format>image/svg+xml</dc:format>
        <dc:type
           rdf:resource="http://purl.org/dc/dcmitype/StillImage" />
        <dc:title />
      </cc:Work>
    </rdf:RDF>
  </metadata>
  <g
     inkscape:groupmode="layer"
     id="layer2"
     inkscape:label="2" />
  <g
     inkscape:label="Layer 1"
     inkscape:groupmode="layer"
     id="layer1"
     transform="translate(0,-87)">
    <g
       id="g1032"
       transform="matrix(0.89908012,0,0,0.9041632,64.596005,-16.944903)">
      <rect
         y="133.42833"
         x="53.445835"
         height="76.631287"
         width="48.817486"
         id="rect906"
         style="fill:#ffd5d5;fill-opacity:1;stroke:#000f04;stroke-width:1.00600004;stroke-miterlimit:4;stroke-dasharray:none;stroke-opacity:1"
         transform="translate(0,87)" />
      <rect
         y="55.530136"
         x="102.26332"
         height="154.5295"
         width="51.426052"
         id="rect906-3"
         style="fill:#e5ffd5;fill-opacity:1;stroke:#00002f;stroke-width:0.95499998;stroke-miterlimit:4;stroke-dasharray:none;stroke-opacity:1"
         transform="translate(0,87)" />
      <rect
         y="92.46875"
         x="153.68938"
         height="117.59088"
         width="50.173302"
         id="rect906-3-6"
         style="fill:#d5f6ff;fill-opacity:1;stroke:#000000;stroke-width:1;stroke-miterlimit:4;stroke-dasharray:none;stroke-opacity:1"
         transform="translate(0,87)" />
      <g
         transform="matrix(0.07477272,0,0,0.07477272,57.91416,256.09611)"
         id="g649">
        <path
           inkscape:connector-curvature="0"
           style="fill:#ffdb2d"
           d="M 111.997,279 H 70.998 C 31.85,279 0,247.149 0,208.001 0,168.853 31.85,137.003 70.998,137.003 h 40.999 V 279 Z M 70.998,167.003 c -22.606,0 -40.999,18.393 -40.999,40.999 0,22.606 18.393,40.998 40.999,40.998 h 11 v -81.998 h -11 z"
           id="path573" />
        <path
           inkscape:connector-curvature="0"
           style="fill:#ff9a00"
           d="M 81.998,208.001 V 249 h -11 C 48.392,249 29.999,230.607 29.999,208.001 H 0 C 0,247.149 31.85,279 70.998,279 h 40.999 v -70.998 z"
           id="path575" />
        <path
           inkscape:connector-curvature="0"
           style="fill:#ff738e"
           d="M 351.99,167.003 H 81.998 v -15 c 0,-41.354 33.644,-74.998 74.998,-74.998 h 119.997 c 41.354,0 74.998,33.644 74.998,74.998 v 15 z"
           id="path577" />
        <path
           inkscape:connector-curvature="0"
           style="fill:#ff3c62"
           d="m 351.99,152.003 c 0,-41.354 -33.644,-74.998 -74.998,-74.998 h -59.998 v 89.998 H 351.99 Z"
           id="path579" />
        <path
           inkscape:connector-curvature="0"
           style="fill:#fc0025"
           d="M 340.943,328.998 H 81.998 V 137.003 h 269.93 v 65.462 l 62.012,-19.357 30.562,-17.623 c 21.479,-12.384 49.045,-5.005 61.447,16.452 6.01,10.396 7.609,22.508 4.501,34.107 -3.109,11.605 -10.558,21.304 -20.972,27.309 z"
           id="path581" />
        <path
           inkscape:connector-curvature="0"
           style="fill:#ffdb2d"
           d="m 451.988,434.995 c -16.026,0 -31.093,-6.241 -42.425,-17.574 -11.332,-11.333 -17.574,-26.399 -17.574,-42.425 0,-16.026 6.241,-31.093 17.574,-42.425 l 42.425,-42.426 42.425,42.426 c 11.333,11.333 17.574,26.399 17.574,42.425 0,16.026 -6.241,31.093 -17.574,42.425 -11.333,11.332 -26.4,17.574 -42.425,17.574 z"
           id="path583" />
        <path
           inkscape:connector-curvature="0"
           style="fill:#ff9a00"
           d="m 494.413,332.572 -42.425,-42.426 v 144.849 c 16.026,0 31.093,-6.241 42.425,-17.574 11.332,-11.333 17.574,-26.399 17.574,-42.425 0,-16.026 -6.242,-31.092 -17.574,-42.424 z"
           id="path585" />
        <path
           inkscape:connector-curvature="0"
           style="fill:#990011"
           d="m 505.949,181.937 c -12.403,-21.456 -39.968,-28.835 -61.447,-16.452 l -30.562,17.623 -62.012,19.357 V 137.003 H 216.994 v 191.995 h 123.949 l 148.536,-85.645 c 10.415,-6.005 17.863,-15.705 20.972,-27.309 3.107,-11.598 1.508,-23.711 -4.502,-34.107 z"
           id="path587" />
        <g
           id="g589" />
        <g
           id="g591" />
        <g
           id="g593" />
        <g
           id="g595" />
        <g
           id="g597" />
        <g
           id="g599" />
        <g
           id="g601" />
        <g
           id="g603" />
        <g
           id="g605" />
        <g
           id="g607" />
        <g
           id="g609" />
        <g
           id="g611" />
        <g
           id="g613" />
        <g
           id="g615" />
        <g
           id="g617" />
      </g>
      <g
         transform="matrix(0.07320387,0,0,0.07320387,108.94885,248.82602)"
         id="g748">
        <path
           inkscape:connector-curvature="0"
           style="fill:#a5be00"
           d="M 166.594,428.703 V 332.498 C 111.778,300.658 77.744,241.587 77.744,178.256 77.744,79.965 157.709,0 256,0 c 98.291,0 178.256,79.965 178.256,178.256 0,63.328 -34.04,122.4 -88.85,154.242 v 96.205 z"
           id="path651" />
        <path
           inkscape:connector-curvature="0"
           style="fill:#c5ce09"
           d="M 205.466,419.818 V 310.123 l -19.347,-11.238 c -42.871,-24.901 -69.503,-71.124 -69.503,-120.629 0,-76.857 62.527,-139.384 139.384,-139.384 76.857,0 139.384,62.527 139.384,139.384 0,49.501 -26.633,95.723 -69.505,120.63 l -19.345,11.238 V 419.817 H 205.466 Z"
           id="path653" />
        <rect
           x="247.67"
           y="179.056"
           style="fill:#38261a"
           width="16.659"
           height="262.319"
           id="rect655" />
        <g
           id="g661">
          <path
             inkscape:connector-curvature="0"
             style="fill:#679436"
             d="m 303.441,234.325 c -12.298,0 -23.982,-4.618 -32.901,-13.004 l -0.127,-0.119 c -4.989,-4.69 -8.892,-10.414 -11.438,-16.771 v 0 c -8.79,-21.635 -0.786,-46.312 19.03,-58.677 6.696,-4.178 17.531,-6.21 33.125,-6.21 13.641,0 30.999,1.64 47.623,4.5 h 0.001 c 5.231,0.9 8.511,6.155 7.021,11.25 v 0 c -4.084,13.966 -18.822,60.415 -37.029,71.776 -7.606,4.745 -16.354,7.254 -25.3,7.254 -0.002,10e-4 -0.004,10e-4 -0.005,10e-4 z"
             id="path657" />
          <path
             inkscape:connector-curvature="0"
             style="fill:#679436"
             d="m 208.556,234.324 c -8.946,0 -17.695,-2.508 -25.3,-7.252 -18.184,-11.347 -32.938,-57.806 -37.026,-71.774 v 0 c -1.492,-5.094 1.789,-10.352 7.02,-11.252 v 0 c 16.623,-2.859 33.98,-4.499 47.619,-4.499 15.593,0 26.429,2.03 33.123,6.208 19.816,12.365 27.819,37.042 19.03,58.677 l -0.814,1.81 c -2.556,5.685 -6.21,10.81 -10.751,15.079 v 0 c -8.916,8.385 -20.602,13.003 -32.901,13.003 z"
             id="path659" />
        </g>
        <g
           id="g667">
          <path
             inkscape:connector-curvature="0"
             style="fill:#5b891f"
             d="m 303.604,221.32 -0.127,-0.119 c -4.989,-4.69 -8.892,-10.414 -11.438,-16.771 -8.79,-21.635 -0.786,-46.312 19.03,-58.677 4.305,-2.687 10.331,-4.48 18.221,-5.422 -6.466,-0.513 -12.622,-0.787 -18.16,-0.787 -15.593,0 -26.428,2.031 -33.125,6.21 -19.816,12.365 -27.819,37.042 -19.03,58.677 2.546,6.356 6.449,12.08 11.438,16.771 l 0.127,0.119 c 8.919,8.386 20.602,13.004 32.901,13.004 0.001,0 0.003,0 0.003,0 5.651,0 11.221,-1.006 16.476,-2.94 -6.006,-2.2 -11.557,-5.59 -16.316,-10.065 z"
             id="path663" />
          <path
             inkscape:connector-curvature="0"
             style="fill:#5b891f"
             d="m 216.319,227.071 c -18.184,-11.347 -32.938,-57.806 -37.026,-71.774 -1.492,-5.094 1.789,-10.352 7.02,-11.252 v 0 c 9.873,-1.698 20.001,-2.962 29.461,-3.712 -4.384,-0.523 -9.335,-0.787 -14.904,-0.787 -13.64,0 -30.997,1.64 -47.619,4.499 v 0 c -5.232,0.9 -8.512,6.157 -7.02,11.252 4.088,13.969 18.842,60.428 37.026,71.774 7.606,4.745 16.354,7.252 25.3,7.252 5.736,0 11.335,-1.017 16.586,-2.94 -3.065,-1.125 -6.023,-2.565 -8.824,-4.312 z"
             id="path665" />
        </g>
        <g
           id="g673">
          <path
             inkscape:connector-curvature="0"
             style="fill:#427aa1"
             d="m 183.809,512 c -15.617,0 -28.321,-12.704 -28.321,-28.321 0,-15.617 12.704,-28.321 28.321,-28.321 h 144.382 c 15.617,0 28.321,12.704 28.321,28.321 0,15.617 -12.704,28.321 -28.321,28.321 z"
             id="path669" />
          <path
             inkscape:connector-curvature="0"
             style="fill:#427aa1"
             d="m 183.809,456.469 c -15.617,0 -28.321,-12.704 -28.321,-28.321 0,-15.617 12.704,-28.321 28.321,-28.321 h 144.382 c 15.617,0 28.321,12.704 28.321,28.321 0,15.617 -12.704,28.321 -28.321,28.321 z"
             id="path671" />
        </g>
        <g
           id="g679">
          <path
             inkscape:connector-curvature="0"
             style="fill:#17688c"
             d="m 207.075,483.679 c 0,-15.617 12.704,-28.321 28.321,-28.321 h -51.587 c -15.617,0 -28.321,12.704 -28.321,28.321 0,15.617 12.704,28.321 28.321,28.321 h 51.587 c -15.616,0 -28.321,-12.704 -28.321,-28.321 z"
             id="path675" />
          <path
             inkscape:connector-curvature="0"
             style="fill:#17688c"
             d="m 207.075,428.148 c 0,-15.617 12.704,-28.321 28.321,-28.321 h -51.587 c -15.617,0 -28.321,12.704 -28.321,28.321 0,15.617 12.704,28.321 28.321,28.321 h 51.587 c -15.616,0 -28.321,-12.705 -28.321,-28.321 z"
             id="path677" />
        </g>
        <g
           id="g681" />
        <g
           id="g683" />
        <g
           id="g685" />
        <g
           id="g687" />
        <g
           id="g689" />
        <g
           id="g691" />
        <g
           id="g693" />
        <g
           id="g695" />
        <g
           id="g697" />
        <g
           id="g699" />
        <g
           id="g701" />
        <g
           id="g703" />
        <g
           id="g705" />
        <g
           id="g707" />
        <g
           id="g709" />
      </g>
      <g
         transform="matrix(0.07821818,0,0,0.07821818,159.35444,247.06592)"
         id="g904">
        <path
           inkscape:connector-curvature="0"
           style="fill:#c8e6ff"
           d="M 114.357,397.642 43.566,503.83 H 8.171 c 0,-58.646 47.542,-106.188 106.186,-106.188 z"
           id="path750" />
        <path
           inkscape:connector-curvature="0"
           style="fill:#add9ff"
           d="m 114.357,397.642 c 32.117,0 60.902,14.259 80.373,36.79 L 149.813,503.83 H 43.566 c 0,-58.646 31.694,-106.188 70.791,-106.188 z"
           id="path752" />
        <path
           inkscape:connector-curvature="0"
           style="fill:#ed2f49"
           d="m 397.644,397.642 70.791,106.188 h 35.396 C 503.83,445.184 456.288,397.642 397.644,397.642 Z"
           id="path754" />
        <path
           inkscape:connector-curvature="0"
           style="fill:#ff455e"
           d="m 397.644,397.642 c -32.117,0 -60.902,14.259 -80.373,36.79 l 44.917,69.397 H 468.436 C 468.435,445.184 436.741,397.642 397.644,397.642 Z"
           id="path756" />
        <path
           inkscape:connector-curvature="0"
           style="fill:#fe7074"
           d="m 235.956,8.913 c -2.149,-0.479 -4.38,-0.743 -6.675,-0.743 -16.885,0 -30.573,13.688 -30.573,30.573 0,6.922 2.301,13.304 6.179,18.429 L 256,124.732 Z"
           id="path758" />
        <path
           inkscape:connector-curvature="0"
           style="fill:#ed2f49"
           d="m 282.72,8.17 c -2.294,0 -4.525,0.264 -6.674,0.743 l -20.045,115.819 51.114,-67.56 c 3.878,-5.124 6.179,-11.507 6.179,-18.429 C 313.293,21.858 299.605,8.17 282.72,8.17 Z"
           id="path760" />
        <path
           inkscape:connector-curvature="0"
           style="fill:#ff455e"
           d="m 290.376,38.743 c 0,-14.587 -6.131,-26.78 -14.331,-29.83 -8.619,1.923 -15.867,7.477 -20.044,14.983 -4.178,-7.506 -11.425,-13.06 -20.044,-14.983 -8.2,3.051 -14.331,15.243 -14.331,29.83 0,6.922 1.381,13.304 3.707,18.429 l 30.667,67.56 30.669,-67.56 c 2.326,-5.124 3.707,-11.507 3.707,-18.429 z"
           id="path762" />
        <path
           inkscape:connector-curvature="0"
           style="fill:#a0613c"
           d="M 185.179,132.902 V 240.23 c 29.637,0 53.664,-24.026 53.664,-53.664 0,-29.638 -24.026,-53.664 -53.664,-53.664 z"
           id="path764" />
        <path
           inkscape:connector-curvature="0"
           style="fill:#bf7447"
           d="m 218.804,186.566 c 0,-29.638 -15.054,-53.664 -33.625,-53.664 -29.638,0 -53.664,24.026 -53.664,53.664 0,29.638 24.026,53.664 53.664,53.664 18.571,0 33.625,-24.025 33.625,-53.664 z"
           id="path766" />
        <path
           inkscape:connector-curvature="0"
           style="fill:#febb8e"
           d="m 256.001,258.179 v 107.379 c 29.652,0 53.689,-24.037 53.689,-53.689 0,-29.652 -24.037,-53.69 -53.689,-53.69 z"
           id="path768" />
        <path
           inkscape:connector-curvature="0"
           style="fill:#fcd5a2"
           d="m 289.642,311.869 c 0,-29.652 -15.062,-53.69 -33.642,-53.69 -29.651,0 -53.689,24.038 -53.689,53.69 0,29.652 24.038,53.689 53.689,53.689 18.58,0 33.642,-24.038 33.642,-53.689 z"
           id="path770" />
        <path
           inkscape:connector-curvature="0"
           style="fill:#feab75"
           d="m 114.357,256 v 111.737 c 30.855,0 55.868,-25.013 55.868,-55.868 C 170.226,281.013 145.212,256 114.357,256 Z"
           id="path772" />
        <path
           inkscape:connector-curvature="0"
           style="fill:#ff9b5f"
           d="m 149.364,311.869 c 0,-30.855 -15.673,-55.869 -35.007,-55.869 -30.855,0 -55.868,25.013 -55.868,55.869 0,30.855 25.013,55.868 55.868,55.868 19.334,0 35.007,-25.013 35.007,-55.868 z"
           id="path774" />
        <path
           inkscape:connector-curvature="0"
           style="fill:#804e30"
           d="M 397.644,258.178 V 365.56 c 29.652,0 53.69,-24.038 53.69,-53.69 0,-29.655 -24.038,-53.692 -53.69,-53.692 z"
           id="path776" />
        <path
           inkscape:connector-curvature="0"
           style="fill:#a0613c"
           d="m 431.285,311.869 c 0,-29.652 -15.062,-53.691 -33.642,-53.691 -29.652,0 -53.69,24.038 -53.69,53.691 0,29.652 24.038,53.69 53.69,53.69 18.58,0 33.642,-24.038 33.642,-53.69 z"
           id="path778" />
        <path
           inkscape:connector-curvature="0"
           style="fill:#ffbb02"
           d="m 256.001,397.642 70.791,106.188 h 35.396 C 362.187,445.184 314.646,397.642 256.001,397.642 Z"
           id="path780" />
        <path
           inkscape:connector-curvature="0"
           style="fill:#ffcc3d"
           d="m 256.001,397.642 c -58.646,0 -106.187,47.542 -106.187,106.188 h 176.978 c 0,-58.646 -31.694,-106.188 -70.791,-106.188 z"
           id="path782" />
        <path
           inkscape:connector-curvature="0"
           style="fill:#feab75"
           d="M 326.822,132.902 V 240.23 c 29.637,0 53.664,-24.026 53.664,-53.664 0,-29.638 -24.027,-53.664 -53.664,-53.664 z"
           id="path784" />
        <path
           inkscape:connector-curvature="0"
           style="fill:#febb8e"
           d="m 360.447,186.566 c 0,-29.638 -15.055,-53.664 -33.625,-53.664 -29.638,0 -53.664,24.026 -53.664,53.664 0,29.638 24.026,53.664 53.664,53.664 18.57,0 33.625,-24.025 33.625,-53.664 z"
           id="path786" />
        <g
           id="g816">
          <path
             inkscape:connector-curvature="0"
             style="fill:#1d2328"
             d="m 249.485,129.661 c 1.544,2.041 3.955,3.241 6.515,3.241 2.56,0 4.972,-1.199 6.515,-3.241 l 51.113,-67.56 c 5.125,-6.773 7.834,-14.85 7.834,-23.358 C 321.464,17.381 304.084,0 282.719,0 272.636,0 263.106,3.934 256,10.702 248.895,3.934 239.365,0 229.282,0 c -21.363,0 -38.744,17.381 -38.744,38.743 0,8.509 2.708,16.587 7.834,23.358 z M 229.282,16.34 c 8.119,0 15.621,4.417 19.581,11.529 1.441,2.591 4.173,4.196 7.139,4.196 2.966,0 5.697,-1.606 7.139,-4.196 3.959,-7.111 11.46,-11.529 19.579,-11.529 12.353,0 22.403,10.05 22.403,22.403 0,4.921 -1.564,9.587 -4.524,13.499 L 256.002,111.19 211.404,52.241 c -2.96,-3.911 -4.523,-8.579 -4.523,-13.499 -0.003,-12.351 10.047,-22.402 22.401,-22.402 z"
             id="path788" />
          <path
             inkscape:connector-curvature="0"
             style="fill:#1d2328"
             d="m 185.179,247.83 c 33.781,0 61.264,-27.484 61.264,-61.264 0,-33.781 -27.484,-61.264 -61.264,-61.264 -33.781,0 -61.264,27.482 -61.264,61.264 0,33.78 27.484,61.264 61.264,61.264 z m 0,-106.187 c 24.771,0 44.923,20.152 44.923,44.923 0,24.771 -20.152,44.923 -44.923,44.923 -24.771,0 -44.923,-20.152 -44.923,-44.923 0,-24.771 20.152,-44.923 44.923,-44.923 z"
             id="path790" />
          <path
             inkscape:connector-curvature="0"
             style="fill:#1d2328"
             d="m 185.117,215.149 c 9.499,0 18.356,-4.71 23.689,-12.602 2.527,-3.739 1.546,-8.817 -2.193,-11.345 -3.736,-2.526 -8.816,-1.546 -11.344,2.193 -2.293,3.39 -6.087,5.413 -10.153,5.413 -4.012,0 -7.78,-1.983 -10.078,-5.303 -2.568,-3.71 -7.655,-4.637 -11.369,-2.069 -3.709,2.568 -4.636,7.657 -2.068,11.367 5.352,7.731 14.141,12.346 23.516,12.346 z"
             id="path792" />
          <path
             inkscape:connector-curvature="0"
             style="fill:#1d2328"
             d="m 194.737,311.869 c 0,33.781 27.484,61.264 61.264,61.264 33.78,0 61.264,-27.482 61.264,-61.264 0,-33.782 -27.483,-61.264 -61.264,-61.264 -33.781,0 -61.264,27.483 -61.264,61.264 z m 106.187,0 c 0,24.771 -20.152,44.923 -44.923,44.923 -24.771,0 -44.923,-20.152 -44.923,-44.923 0,-24.771 20.152,-44.923 44.923,-44.923 24.771,0 44.923,20.152 44.923,44.923 z"
             id="path794" />
          <path
             inkscape:connector-curvature="0"
             style="fill:#1d2328"
             d="m 245.86,318.808 c -2.567,-3.71 -7.655,-4.638 -11.369,-2.069 -3.709,2.568 -4.636,7.657 -2.068,11.367 5.35,7.73 14.139,12.345 23.514,12.345 9.499,0 18.356,-4.71 23.689,-12.602 2.527,-3.739 1.546,-8.817 -2.193,-11.345 -3.737,-2.527 -8.816,-1.544 -11.344,2.193 -2.292,3.39 -6.087,5.413 -10.153,5.413 -4.01,10e-4 -7.778,-1.981 -10.076,-5.302 z"
             id="path796" />
          <path
             inkscape:connector-curvature="0"
             style="fill:#1d2328"
             d="m 114.358,373.133 c 33.781,0 61.264,-27.482 61.264,-61.264 0,-33.782 -27.484,-61.264 -61.264,-61.264 -33.781,0 -61.264,27.484 -61.264,61.264 0,33.78 27.483,61.264 61.264,61.264 z m 0,-106.188 c 24.771,0 44.923,20.153 44.923,44.923 0,24.771 -20.152,44.923 -44.923,44.923 -24.771,0 -44.923,-20.152 -44.923,-44.923 -0.001,-24.77 20.151,-44.923 44.923,-44.923 z"
             id="path798" />
          <path
             inkscape:connector-curvature="0"
             style="fill:#1d2328"
             d="m 114.358,340.452 c 9.499,0 18.356,-4.71 23.689,-12.602 2.527,-3.739 1.546,-8.817 -2.193,-11.345 -3.737,-2.527 -8.816,-1.544 -11.344,2.193 -2.292,3.39 -6.087,5.413 -10.153,5.413 -4.012,0 -7.78,-1.983 -10.078,-5.303 -2.567,-3.71 -7.654,-4.638 -11.369,-2.069 -3.709,2.568 -4.636,7.657 -2.068,11.367 5.352,7.731 14.141,12.346 23.516,12.346 z"
             id="path800" />
          <path
             inkscape:connector-curvature="0"
             style="fill:#1d2328"
             d="m 164.48,409.841 c 1.814,-4.132 -0.064,-8.951 -4.196,-10.766 -14.509,-6.372 -29.961,-9.602 -45.926,-9.602 -63.056,-0.001 -114.357,51.3 -114.357,114.357 0,4.512 3.657,8.17 8.17,8.17 4.513,0 8.17,-3.658 8.17,-8.17 0,-54.047 43.97,-98.017 98.017,-98.017 13.689,0 26.931,2.767 39.356,8.224 4.134,1.812 8.952,-0.065 10.766,-4.196 z"
             id="path802" />
          <path
             inkscape:connector-curvature="0"
             style="fill:#1d2328"
             d="m 336.379,311.869 c 0,33.781 27.483,61.264 61.264,61.264 33.781,0 61.264,-27.482 61.264,-61.264 0,-33.782 -27.482,-61.264 -61.264,-61.264 -33.78,-10e-4 -61.264,27.483 -61.264,61.264 z m 61.264,-44.924 c 24.771,0 44.923,20.153 44.923,44.923 0,24.771 -20.152,44.923 -44.923,44.923 -24.771,0 -44.923,-20.152 -44.923,-44.923 0,-24.77 20.152,-44.923 44.923,-44.923 z"
             id="path804" />
          <path
             inkscape:connector-curvature="0"
             style="fill:#1d2328"
             d="m 397.581,340.452 c 9.499,0 18.356,-4.71 23.689,-12.602 2.527,-3.739 1.546,-8.817 -2.193,-11.345 -3.735,-2.527 -8.817,-1.544 -11.344,2.193 -2.292,3.39 -6.087,5.413 -10.153,5.413 -4.012,0 -7.78,-1.983 -10.078,-5.303 -2.567,-3.71 -7.655,-4.638 -11.369,-2.069 -3.709,2.568 -4.636,7.657 -2.068,11.367 5.351,7.731 14.14,12.346 23.516,12.346 z"
             id="path806" />
          <path
             inkscape:connector-curvature="0"
             style="fill:#1d2328"
             d="m 397.643,389.472 c -15.965,0 -31.416,3.23 -45.924,9.602 -4.132,1.814 -6.01,6.634 -4.196,10.766 1.814,4.131 6.633,6.009 10.766,4.196 12.424,-5.457 25.665,-8.223 39.354,-8.223 54.047,0 98.017,43.97 98.017,98.017 0,4.512 3.657,8.17 8.17,8.17 4.513,0 8.17,-3.658 8.17,-8.17 0,-63.057 -51.3,-114.358 -114.357,-114.358 z"
             id="path808" />
          <path
             inkscape:connector-curvature="0"
             style="fill:#1d2328"
             d="m 256.001,389.473 c -63.058,0 -114.358,51.3 -114.358,114.357 0,4.512 3.657,8.17 8.17,8.17 4.513,0 8.17,-3.658 8.17,-8.17 0,-54.047 43.97,-98.016 98.017,-98.016 54.047,0 98.017,43.97 98.017,98.016 0,4.512 3.657,8.17 8.17,8.17 4.513,0 8.17,-3.658 8.17,-8.17 10e-4,-63.057 -51.299,-114.357 -114.356,-114.357 z"
             id="path810" />
          <path
             inkscape:connector-curvature="0"
             style="fill:#1d2328"
             d="m 265.557,186.566 c 0,33.781 27.483,61.264 61.264,61.264 33.781,0 61.264,-27.484 61.264,-61.264 0,-33.781 -27.482,-61.264 -61.264,-61.264 -33.78,10e-4 -61.264,27.483 -61.264,61.264 z m 61.265,-44.923 c 24.771,0 44.923,20.152 44.923,44.923 0,24.771 -20.152,44.923 -44.923,44.923 -24.771,0 -44.923,-20.152 -44.923,-44.923 0,-24.771 20.151,-44.923 44.923,-44.923 z"
             id="path812" />
          <path
             inkscape:connector-curvature="0"
             style="fill:#1d2328"
             d="m 326.759,215.149 c 9.499,0 18.356,-4.71 23.689,-12.602 2.527,-3.739 1.546,-8.817 -2.193,-11.345 -3.737,-2.526 -8.816,-1.546 -11.344,2.193 -2.293,3.39 -6.087,5.413 -10.153,5.413 -4.012,0 -7.78,-1.983 -10.078,-5.303 -2.568,-3.71 -7.655,-4.637 -11.367,-2.069 -3.709,2.568 -4.636,7.657 -2.068,11.367 5.35,7.731 14.14,12.346 23.514,12.346 z"
             id="path814" />
        </g>
        <g
           id="g818" />
        <g
           id="g820" />
        <g
           id="g822" />
        <g
           id="g824" />
        <g
           id="g826" />
        <g
           id="g828" />
        <g
           id="g830" />
        <g
           id="g832" />
        <g
           id="g834" />
        <g
           id="g836" />
        <g
           id="g838" />
        <g
           id="g840" />
        <g
           id="g842" />
        <g
           id="g844" />
        <g
           id="g846" />
      </g>
    </g>
    <g
       id="g1042"
       transform="matrix(0.68275918,0,0,0.68275918,70.594184,94.439834)">
      <g
         transform="translate(212.31769,-8.1870576)"
         id="g1207">
        <path
           id="path1036"
           d="m 34.274823,41.1149 h 26.924 c -0.984,-14.421 -12.503,-25.941 -26.924,-26.924 z"
           style="fill:#e5ffd5;fill-opacity:1;stroke:#000000;stroke-width:1.14681721;stroke-miterlimit:4;stroke-dasharray:none;stroke-opacity:1"
           inkscape:connector-curvature="0" />
        <path
           id="path1038"
           d="m 53.583823,62.7679 c 4.343,-4.71 7.151,-10.858 7.614,-17.653 h -25.267 z"
           style="fill:#d5f6ff;fill-opacity:1;stroke:#000000;stroke-width:1.14681721;stroke-miterlimit:4;stroke-dasharray:none;stroke-opacity:1"
           inkscape:connector-curvature="0" />
        <path
           id="path1040"
           d="m 30.274823,45.1149 v -30.924 c -15.082,1.028 -27,13.58 -27,28.924 0,16.016 12.984,29 29,29 6.99,0 13.396,-2.479 18.401,-6.599 z"
           style="fill:#ffd5d5;fill-opacity:1;stroke:#000000;stroke-width:1.02525163;stroke-miterlimit:4;stroke-dasharray:none;stroke-opacity:1"
           inkscape:connector-curvature="0" />
      </g>
      <g
         transform="matrix(0.38752073,0,0,0.38752073,-54.968986,-44.052906)"
         id="g1202">
        <g
           transform="matrix(0.59667918,0,0,0.59667918,164.51456,164.51456)"
           style="fill:#324a5e;fill-opacity:1;stroke:none;stroke-opacity:1"
           id="g1118">
          <rect
             x="108"
             y="127.3"
             style="fill:#324a5e;fill-opacity:1;stroke:none;stroke-opacity:1"
             width="19"
             height="13.7"
             id="rect1104" />
          <rect
             x="108"
             y="170.2"
             style="fill:#324a5e;fill-opacity:1;stroke:none;stroke-opacity:1"
             width="19"
             height="13.7"
             id="rect1106" />
          <rect
             x="108"
             y="213"
             style="fill:#324a5e;fill-opacity:1;stroke:none;stroke-opacity:1"
             width="19"
             height="13.7"
             id="rect1108" />
          <rect
             x="108"
             y="255.89999"
             style="fill:#324a5e;fill-opacity:1;stroke:none;stroke-opacity:1"
             width="19"
             height="13.6"
             id="rect1110" />
          <rect
             x="108"
             y="298.79999"
             style="fill:#324a5e;fill-opacity:1;stroke:none;stroke-opacity:1"
             width="19"
             height="13.7"
             id="rect1112" />
          <rect
             x="108"
             y="341.70001"
             style="fill:#324a5e;fill-opacity:1;stroke:none;stroke-opacity:1"
             width="19"
             height="13.7"
             id="rect1114" />
          <polygon
             style="fill:#324a5e;fill-opacity:1;stroke:none;stroke-opacity:1"
             points="113.9,391.1 407.9,391.1 407.9,407.9 97.1,407.9 97.1,97.1 113.9,97.1 "
             id="polygon1116" />
        </g>
        <circle
           style="fill:#ff4e7a;fill-opacity:1;stroke-width:0.59667915"
           cx="278.48029"
           cy="259.44623"
           r="24.046171"
           id="circle1120" />
        <g
           id="g1126">
          <circle
             style="fill:#82d952;fill-opacity:1;stroke-width:0.59667915"
             cx="382.9588"
             cy="343.27966"
             r="12.470594"
             id="circle1122" />
          <circle
             style="fill:#366fff;fill-opacity:1;stroke-width:0.59667915"
             cx="317.86111"
             cy="306.40488"
             r="8.4728441"
             id="circle1124" />
        </g>
        <circle
           style="fill:#366fff;fill-opacity:1;stroke-width:0.59667915"
           cx="291.18954"
           cy="362.85071"
           r="15.334656"
           id="circle1128" />
        <circle
           style="fill:#a9d45e;fill-opacity:1;stroke-width:0.59667915"
           cx="363.38773"
           cy="259.44623"
           r="19.571077"
           id="circle1130" />
        <circle
           style="fill:#ff3c62;fill-opacity:1;stroke-width:0.59667915"
           cx="343.87634"
           cy="377.88705"
           r="8.9501877"
           id="circle1132" />
        <g
           id="g1134" />
        <g
           id="g1136" />
        <g
           id="g1138" />
        <g
           id="g1140" />
        <g
           id="g1142" />
        <g
           id="g1144" />
        <g
           id="g1146" />
        <g
           id="g1148" />
        <g
           id="g1150" />
        <g
           id="g1152" />
        <g
           id="g1154" />
        <g
           id="g1156" />
        <g
           id="g1158" />
        <g
           id="g1160" />
        <g
           id="g1162" />
        <rect
           style="display:inline;fill:#f9efe5;fill-opacity:1;stroke:#000000;stroke-width:2.90992498;stroke-miterlimit:4;stroke-dasharray:none;stroke-opacity:1"
           id="rect134"
           width="249.47673"
           height="266.6152"
           x="-99.689064"
           y="595.95294" />
        <path
           style="display:inline;fill:none;stroke:url(#linearGradient1481);stroke-width:4.69690037;stroke-linecap:butt;stroke-linejoin:miter;stroke-miterlimit:4;stroke-dasharray:none;stroke-opacity:1"
           d="M 53.576688,666.2698 328.44529,770.8226"
           id="path2415-5-3"
           inkscape:connector-curvature="0" />
        <g
           id="g368"
           transform="matrix(0.61672113,0,0,0.61833836,-99.436664,608.6606)">
          <g
             id="g311">
            <path
               id="path307"
               d="m 375.925,276.23 c -0.911,-2.865 -3.547,-4.791 -6.557,-4.791 -1.48,0 -2.895,0.469 -4.089,1.354 l -21.416,15.89 c -4.819,3.577 -8.326,8.74 -9.873,14.539 l -7.503,28.136 c -1.918,7.195 1.833,14.748 8.725,17.566 l 3.925,1.605 c 1.797,0.734 3.686,1.107 5.617,1.107 5.616,0 10.688,-3.108 13.235,-8.113 l 17.241,-33.867 c 4.496,-8.832 5.317,-18.897 2.313,-28.342 z m -7.823,29.798 -17.241,33.867 c -1.176,2.308 -3.516,3.742 -6.106,3.742 -0.887,0 -1.758,-0.172 -2.588,-0.512 l -3.925,-1.605 c -3.179,-1.3 -4.908,-4.783 -4.023,-8.102 l 7.503,-28.135 c 1.082,-4.059 3.536,-7.673 6.91,-10.176 l 20.15,-14.949 1.14,3.582 c 2.362,7.428 1.715,15.343 -1.82,22.288 z"
               inkscape:connector-curvature="0"
               style="fill:#933ec5" />
            <path
               id="path309"
               d="m 321.558,257.12 c -2.672,-16.517 3.949,-33.059 17.278,-43.171 l 20.13,-15.27 c 10.044,-7.62 16.855,-18.641 19.179,-31.033 l 1.014,-5.408 c 1.196,-6.381 -0.496,-12.904 -4.642,-17.899 -4.146,-4.995 -10.245,-7.859 -16.736,-7.859 -9.542,0 -21.853,-6.85 -26.882,-14.958 L 301.788,74.596 C 286.065,49.252 262.116,29.3 234.289,18.39 c -1.419,-0.555 -2.908,-0.836 -4.426,-0.836 -4.263,0 -8.266,2.275 -10.448,5.938 l -3.395,5.699 c -2.692,4.519 -7.634,7.326 -12.897,7.327 -2.06,0 -4.069,-0.42 -5.973,-1.247 l -10.337,-4.494 c -4.02,-1.748 -7.065,-5.153 -8.355,-9.343 -1.29,-4.19 -0.688,-8.719 1.653,-12.426 0.96,-1.519 1.076,-3.398 0.313,-5.027 C 179.662,2.357 178.148,1.248 176.37,1.015 170.418,0.237 164.432,-0.097 158.518,0.024 L 123.375,0.742 C 95.334,1.313 70.017,16.035 55.651,40.121 L 23.165,94.582 c -9.115,15.281 -8.591,34.697 1.335,49.465 l 15.983,23.78 c 6.192,9.213 16.513,14.713 27.608,14.713 1.416,0 2.848,-0.092 4.255,-0.272 l 51.29,-6.603 c 6.941,-0.896 13.911,1.707 18.58,6.895 3.832,4.256 5.74,9.667 5.436,15.343 -1.141,1.647 -1.686,3.604 -1.518,5.563 0.213,2.49 1.563,4.784 3.7,6.292 l 10.182,7.188 c 11.845,8.361 16.821,23.774 12.102,37.483 l -3.368,9.783 c -5.875,17.066 -5.579,35.757 0.832,52.629 l 23.074,60.723 c 3.908,10.284 13.534,17.237 24.524,17.714 l 20.845,0.906 c 0.4,0.018 0.799,0.026 1.197,0.026 6.873,0 13.455,-2.551 18.536,-7.182 l 17.277,-15.754 c 6.892,-6.284 11.187,-14.857 12.094,-24.142 l 1.147,-11.764 c 0.894,-9.166 5.873,-17.244 13.659,-22.162 l 5.313,-3.355 c 12.766,-8.063 19.456,-22.902 17.044,-37.807 z M 123.538,8.74 158.681,8.022 c 4.222,-0.087 8.476,0.076 12.744,0.483 -1.929,4.836 -2.172,10.221 -0.613,15.283 1.978,6.424 6.648,11.645 12.812,14.324 l 10.337,4.494 c 2.916,1.269 5.998,1.911 9.163,1.911 8.066,-0.001 15.642,-4.305 19.77,-11.233 l 3.396,-5.699 c 0.746,-1.254 2.116,-2.032 3.575,-2.032 0.517,0 1.025,0.097 1.567,0.308 26.169,10.26 48.741,29.065 63.559,52.95 l 12.147,19.581 -38.85,69.625 -26.725,-43.829 1.426,-24.25 c 0.087,-1.479 -0.65,-2.885 -1.917,-3.653 L 199.075,70.786 c -1.79,-1.086 -4.115,-0.608 -5.331,1.094 l -5.441,7.617 -13.389,-7.303 c -1.251,-0.683 -2.771,-0.646 -3.991,0.093 L 131.348,96.314 64.354,41.319 C 77.551,21.345 99.423,9.232 123.538,8.74 Z m 2.883,158.746 c -1.262,0 -2.542,0.082 -3.806,0.244 l -51.29,6.602 c -1.069,0.138 -2.157,0.207 -3.233,0.207 -8.427,0 -16.266,-4.178 -20.969,-11.176 L 31.14,139.583 C 22.932,127.371 22.498,111.315 30.036,98.679 L 60.14,48.21 l 68.321,56.086 c 1.311,1.076 3.159,1.21 4.614,0.327 l 40.028,-24.304 12.334,6.729 -1.4,57.426 -34.843,33.946 c -0.332,-0.413 -0.676,-0.818 -1.032,-1.213 -5.561,-6.178 -13.486,-9.721 -21.741,-9.721 z m 49.895,99.329 3.368,-9.783 c 5.87,-17.052 -0.32,-36.224 -15.053,-46.622 l -10.183,-7.188 c -0.203,-0.144 -0.331,-0.307 -0.342,-0.439 -0.012,-0.132 0.087,-0.314 0.263,-0.49 0.647,-0.649 1.054,-1.499 1.15,-2.41 0.52,-4.944 -0.243,-9.89 -2.123,-14.388 l 37.391,-36.428 c 0.749,-0.73 1.183,-1.723 1.208,-2.768 l 1.47,-60.268 4.629,-6.48 36.765,22.322 -1.357,23.096 c -0.048,0.813 0.154,1.621 0.578,2.316 l 36.727,60.23 -12.821,78.349 -31.84,6.922 c -1.834,0.399 -3.145,2.02 -3.15,3.896 l -0.07,22.608 -49.783,-0.974 c -1.368,-10.539 -0.324,-21.34 3.173,-31.501 z m 93.331,100.547 -17.276,15.754 c -3.813,3.475 -8.801,5.31 -13.996,5.075 l -20.845,-0.906 c -7.795,-0.339 -14.622,-5.27 -17.394,-12.564 l -23.074,-60.723 c -0.953,-2.509 -1.742,-5.065 -2.393,-7.65 l 67.366,1.318 38.073,31.058 -0.94,9.63 c -0.713,7.311 -4.094,14.061 -9.521,19.008 z m 33.333,-62.274 -5.314,3.355 c -7.872,4.972 -13.474,12.491 -16.009,21.221 l -35.635,-29.07 c -0.693,-0.565 -1.556,-0.882 -2.45,-0.899 l -12.647,-0.247 0.06,-19.526 31.357,-6.817 c 1.604,-0.349 2.833,-1.642 3.098,-3.263 l 13.5,-82.496 c 0.154,-0.943 -0.034,-1.911 -0.532,-2.727 l -5.338,-8.754 38.89,-69.695 12.141,19.57 c 6.52,10.509 21.314,18.741 33.681,18.741 4.103,0 7.96,1.811 10.581,4.969 2.62,3.157 3.689,7.282 2.934,11.316 l -1.014,5.408 c -1.956,10.436 -7.692,19.717 -16.15,26.134 l -20.13,15.27 c -15.692,11.904 -23.486,31.378 -20.34,50.821 l 2.737,16.925 c 1.897,11.732 -3.37,23.416 -13.42,29.764 z"
               inkscape:connector-curvature="0"
               style="fill:#933ec5" />
          </g>
          <g
             id="g313" />
          <g
             id="g315" />
          <g
             id="g317" />
          <g
             id="g319" />
          <g
             id="g321" />
          <g
             id="g323" />
          <g
             id="g325" />
          <g
             id="g327" />
          <g
             id="g329" />
          <g
             id="g331" />
          <g
             id="g333" />
          <g
             id="g335" />
          <g
             id="g337" />
          <g
             id="g339" />
          <g
             id="g341" />
        </g>
        <ellipse
           style="opacity:1;fill:#621fa9;fill-opacity:1;stroke:#009059;stroke-width:0;stroke-miterlimit:4;stroke-dasharray:none;stroke-opacity:1"
           id="path2477"
           cx="-22.529741"
           cy="660.8772"
           rx="14.529593"
           ry="13.511656"
           transform="matrix(0.99306887,-0.11753389,0.12572093,0.99206565,0,0)" />
        <path
           style="display:inline;fill:#e9bcd2;fill-opacity:1;stroke:url(#linearGradient1473);stroke-width:4.58584213;stroke-linecap:butt;stroke-linejoin:miter;stroke-miterlimit:4;stroke-dasharray:none;stroke-opacity:1"
           d="M 208.27549,79.188702 48.170958,661.82217"
           id="path2415-5-3-3"
           inkscape:connector-curvature="0" />
        <g
           id="g1447"
           transform="matrix(0.23864831,0,0,0.21869695,6.543761,637.08816)">
          <path
             id="path1371"
             d="m 366.677,204.09 c -7.27,0 -12.775,3.408 -16.941,8.358 -0.128,-1.55 -0.202,-2.889 -0.202,-3.954 0,-22.661 -12.519,-37.299 -31.9,-37.299 -8.578,0 -15.126,2.378 -20.001,5.742 -2.928,-10.12 -11.524,-21.349 -27.976,-21.349 -9.076,0 -16.042,2.713 -21.226,6.139 -0.211,-26.431 -0.418,-53.116 -0.418,-55.124 0,-9.336 -11.198,-27.496 -31.724,-27.496 -17.645,0 -27.496,16.575 -30.535,26.36 -0.238,0.775 -0.374,1.576 -0.401,2.378 l -4.276,128.964 C 173.6,222.7 162.899,209.19 154.845,205.077 c -9.292,-4.765 -25.114,-1.533 -34.493,7.046 -8.675,7.935 -10.952,19.209 -6.24,30.922 3.756,9.327 6.033,20.283 8.671,32.974 3.36,16.179 7.548,36.312 16.452,60.867 14.294,39.456 58.929,81.124 71.374,92.212 v 29.654 c 0,29.363 23.925,53.249 53.337,53.249 h 58.414 c 29.412,0 53.337,-23.903 53.337,-53.293 v -35.625 c 15.003,-20.574 23.965,-57.599 24.352,-59.229 0.163,-0.687 0.247,-1.392 0.247,-2.096 V 238.527 C 400.294,217.926 386.783,204.09 366.677,204.09 Z"
             style="fill:#314e55"
             inkscape:connector-curvature="0" />
          <path
             id="path1373"
             d="m 382.257,360.674 c -2.81,11.317 -11.59,40.214 -22.564,53.636 -1.317,1.612 -2.034,3.629 -2.034,5.707 v 38.69 c 0,19.438 -15.835,35.255 -35.299,35.255 h -58.414 c -19.464,0 -35.3,-15.791 -35.3,-35.211 v -33.749 c 0,-2.642 -1.158,-5.152 -3.171,-6.861 -0.542,-0.467 -54.596,-46.872 -69.287,-87.403 -8.464,-23.339 -12.335,-41.958 -15.747,-58.392 -2.814,-13.528 -5.24,-25.215 -9.596,-36.03 -2.343,-5.83 -0.533,-8.684 1.303,-10.525 3.571,-3.567 9.371,-4.906 12.599,-4.906 0.832,0 1.493,0.088 1.898,0.255 6.081,3.109 20.856,24.07 24.687,39.227 1.559,6.156 2.343,12.013 3.034,17.165 1.321,9.855 2.369,17.632 8.261,22.326 2.669,2.123 6.306,2.554 9.402,1.136 3.091,-1.436 5.117,-4.483 5.231,-7.891 l 6.073,-183.226 c 1.246,-3.135 5.668,-12.735 12.955,-12.735 10.454,0 13.682,9.697 13.686,9.468 0,4.236 0.85,108.84 0.85,108.84 0.04,4.765 3.774,8.675 8.53,8.93 4.787,0.502 8.886,-3.223 9.446,-7.953 l 4.007,-34.137 c 1.665,-2.598 6.641,-8.666 16.848,-8.666 9.107,0 10.802,7.548 11.185,11.432 l 5.659,36.585 c 0.727,4.694 5.011,8.032 9.71,7.601 4.738,-0.423 8.332,-4.448 8.217,-9.195 l -0.555,-23.401 c 0.964,-2.334 4.175,-7.416 13.761,-7.416 11.458,0 13.862,10.472 13.862,19.262 0,10.921 5.227,39.122 5.822,42.301 0.823,4.404 4.778,7.671 9.243,7.336 4.483,-0.185 8.142,-3.637 8.596,-8.103 1.282,-12.638 6.707,-27.901 11.52,-27.901 12.876,0 15.58,8.922 15.58,16.399 z"
             style="fill:#e9bc72;fill-opacity:1"
             inkscape:connector-curvature="0" />
          <g
             id="g1387" />
          <g
             id="g1389" />
          <g
             id="g1391" />
          <g
             id="g1393" />
          <g
             id="g1395" />
          <g
             id="g1397" />
          <g
             id="g1399" />
          <g
             id="g1401" />
          <g
             id="g1403" />
          <g
             id="g1405" />
          <g
             id="g1407" />
          <g
             id="g1409" />
          <g
             id="g1411" />
          <g
             id="g1413" />
          <g
             id="g1415" />
        </g>
      </g>
    </g>
    <g
       id="g1044"
       transform="matrix(0.68275918,0,0,0.68275918,70.594184,94.439834)" />
    <g
       id="g1046"
       transform="matrix(0.68275918,0,0,0.68275918,70.594184,94.439834)" />
    <g
       id="g1048"
       transform="matrix(0.68275918,0,0,0.68275918,70.594184,94.439834)" />
    <g
       id="g1050"
       transform="matrix(0.68275918,0,0,0.68275918,70.594184,94.439834)" />
    <g
       id="g1052"
       transform="matrix(0.68275918,0,0,0.68275918,70.594184,94.439834)" />
    <g
       id="g1054"
       transform="matrix(0.68275918,0,0,0.68275918,70.594184,94.439834)" />
    <g
       id="g1056"
       transform="matrix(0.68275918,0,0,0.68275918,70.594184,94.439834)" />
    <g
       id="g1058"
       transform="matrix(0.68275918,0,0,0.68275918,70.594184,94.439834)" />
    <g
       id="g1060"
       transform="matrix(0.68275918,0,0,0.68275918,70.594184,94.439834)" />
    <g
       id="g1062"
       transform="matrix(0.68275918,0,0,0.68275918,70.594184,94.439834)" />
    <g
       id="g1064"
       transform="matrix(0.68275918,0,0,0.68275918,70.594184,94.439834)" />
    <g
       id="g1066"
       transform="matrix(0.68275918,0,0,0.68275918,70.594184,94.439834)" />
    <g
       id="g1068"
       transform="matrix(0.68275918,0,0,0.68275918,70.594184,94.439834)" />
    <g
       id="g1070"
       transform="matrix(0.68275918,0,0,0.68275918,70.594184,94.439834)" />
    <g
       id="g1072"
       transform="matrix(0.68275918,0,0,0.68275918,70.594184,94.439834)" />
  </g>
</svg>
